<?xml version="1.0" encoding="UTF-8" standalone="no"?>
<!-- Generator: Adobe Illustrator 27.5.0, SVG Export Plug-In . SVG Version: 6.00 Build 0)  -->

<svg
   version="1.1"
   x="0px"
   y="0px"
   viewBox="0 0 3710 3710"
   xml:space="preserve"
   id="svg1706"
   sodipodi:docname="audit.svg"
   inkscape:version="1.2.2 (732a01da63, 2022-12-09)"
   style="enable-background:new 0 0 3710 3710;"
   xmlns:inkscape="http://www.inkscape.org/namespaces/inkscape"
   xmlns:sodipodi="http://sodipodi.sourceforge.net/DTD/sodipodi-0.dtd"
   xmlns:xlink="http://www.w3.org/1999/xlink"
   xmlns="http://www.w3.org/2000/svg"
   xmlns:svg="http://www.w3.org/2000/svg"><defs
   id="defs1710" /><sodipodi:namedview
   id="namedview1708"
   pagecolor="#505050"
   bordercolor="#eeeeee"
   borderopacity="1"
   inkscape:showpageshadow="0"
   inkscape:pageopacity="0"
   inkscape:pagecheckerboard="0"
   inkscape:deskcolor="#505050"
   showgrid="false"
   inkscape:zoom="0.22345013"
   inkscape:cx="1076.3028"
   inkscape:cy="1288.8782"
   inkscape:window-width="1920"
   inkscape:window-height="1009"
   inkscape:window-x="-8"
   inkscape:window-y="-8"
   inkscape:window-maximized="1"
   inkscape:current-layer="svg1706" />

<g
   id="Illustration">
	<g
   id="g1703">
		<path
   style="display:none;fill:#e8f1ce;fill-opacity:0.501961"
   d="M 1872.936,418.208 C 1170.512,396.877 562.065,921.017 470.139,1608.755 369.632,2360.702 922.813,3037.274 1603.479,3145.637 2450.114,3280.423 3271.301,2500.673 3197.567,1654.76 3142.015,1017.438 2586.963,439.89 1872.936,418.208 Z"
   id="path1221"
   inkscape:label="background" />
		<g
   id="g1286"
   inkscape:label="leafs left">
			<g
   id="g1248">
				<g
   id="g1246">
					<defs
   id="defs1224">
						<path
   id="SVGID_1_"
   d="M1530.138,2996.284c37.512-114.311,75.691-288.822,30.996-482.57        c-51.324-222.476-165.014-266.986-267.092-504.796c-145.714-339.467,19.198-585.367-131.648-689.121        c-73.563-50.596-189.238-50.637-260.556,0.159c-203.474,144.926-147.694,776.19,175.14,1022.526        c146.007,111.41,273.416,98.194,382.983,242.362C1556.775,2712.234,1549.183,2880.294,1530.138,2996.284z" />
					</defs>
					
						<linearGradient
   id="SVGID_00000144327218651933762930000002751792339943362698_"
   gradientUnits="userSpaceOnUse"
   x1="904.1995"
   y1="1295.8654"
   x2="1390.6962"
   y2="2843.8083">
						<stop
   offset="0.0036"
   style="stop-color:#85b857;stop-opacity:1;"
   id="stop1226" />
						<stop
   offset="0.43064183"
   style="stop-color:#5f883a;stop-opacity:1;"
   id="stop1228" />
					</linearGradient>
					
						<use
   xlink:href="#SVGID_1_"
   style="overflow:visible;fill:url(#SVGID_00000144327218651933762930000002751792339943362698_);"
   id="use1231" />
					<clipPath
   id="SVGID_00000085959269424672224070000008572553705154992543_">
						<use
   xlink:href="#SVGID_1_"
   style="overflow:visible;"
   id="use1233" />
					</clipPath>
					<g
   clip-path="url(#SVGID_00000085959269424672224070000008572553705154992543_)"
   id="g1244"
   style="clip-path:url(#SVGID_00000085959269424672224070000008572553705154992543_);">
						<path
   style="fill:#FFFFFF;"
   d="M1553.085,2708.653c-12.232-48.07-28.679-95.312-48.885-140.414        c-46.434-103.641-97.68-160.65-162.56-232.824c-42.343-47.106-90.338-100.495-145.8-177.047        c-103.77-143.22-135.973-193.535-164.829-274.641c-57.099-160.489-48.328-304.384-38.021-375.872        c14.625-101.411,48.65-197.917,101.135-286.841l3.135,1.852c-52.241,88.51-86.11,184.57-100.665,285.509        c-10.262,71.157-18.99,214.382,37.847,374.134c28.701,80.675,60.817,130.837,164.345,273.725        c55.351,76.395,103.277,129.708,145.56,176.747c65.094,72.413,116.507,129.609,163.175,233.771        c20.292,45.291,36.808,92.732,49.09,141.004L1553.085,2708.653z"
   id="path1236" />
						<path
   style="fill:#FFFFFF;"
   d="M1003.127,1770.348l-2.635-1.428c-0.603-0.327-60.861-33.451-114.405-100.857        c-49.436-62.238-103.155-167.276-78.319-314.243l3.591,0.608c-24.613,145.643,28.603,249.713,77.58,311.369        c46.758,58.866,98.574,91.302,110.671,98.421c3.345-117.414,78.614-193.498,141.479-236.763        c68.573-47.194,137.579-66.552,138.268-66.741l0.968,3.51c-0.684,0.189-69.183,19.416-137.257,66.29        c-62.667,43.151-137.809,119.268-139.889,236.837L1003.127,1770.348z"
   id="path1238" />
						<path
   style="fill:#FFFFFF;"
   d="M1020.304,2147.938c-60.946,0-132.56-14.975-198.697-66.452l2.237-2.874        c148.467,115.555,324.999,45.07,342.47,37.628c-29.98-115.921-3.465-201.445,24.139-252.85        c30.061-55.979,67.941-84.757,68.319-85.04l2.184,2.912c-0.373,0.281-37.706,28.676-67.379,84.004        c-27.366,51.031-53.632,136.096-23.348,251.56l0.387,1.479l-1.389,0.636        C1168.134,2119.445,1104.368,2147.938,1020.304,2147.938z"
   id="path1240" />
						<path
   style="fill:#FFFFFF;"
   d="M1156.262,2369.06c-45.708,0-100.419-8.299-164.078-31.555l1.251-3.421        c208.471,76.163,319.947-9.196,331.423-18.7c-50.758-118.738,20.722-310.774,21.452-312.705l3.407,1.286        c-0.728,1.926-72.185,193.929-20.987,311.203l0.521,1.195l-0.963,0.878C1327.49,2317.97,1269.621,2369.06,1156.262,2369.06z"
   id="path1242" />
					</g>
				</g>
			</g>
			<g
   id="g1275">
				<g
   id="g1273">
					<defs
   id="defs1251">
						<path
   id="SVGID_00000111875695177170383510000016602436567954892179_"
   d="M1646.421,2817.071        c12.695-76.788,19.992-196.711-42.512-303.959c-109.043-187.103-307.8-125.038-498.046-325.492        c-153.442-161.674-105.086-287.33-275.111-394.776c-28.459-17.984-178.834-116.954-290.659-57.343        c-63.015,33.59-85.846,102.55-90.132,115.496c-64.777,195.656,134.513,501.983,394.27,642.088        c149.241,80.495,197.39,54.189,460.019,148.07C1458.573,2696.319,1574.443,2767.355,1646.421,2817.071z" />
					</defs>
					
						<linearGradient
   id="SVGID_00000048485626879875452710000016854071818547985305_"
   gradientUnits="userSpaceOnUse"
   x1="1859.3783"
   y1="5903.9736"
   x2="1745.0972"
   y2="5399.79">
						<stop
   offset="0"
   style="stop-color:#4f6034;stop-opacity:1;"
   id="stop1253" />
						<stop
   offset="1"
   style="stop-color:#90c239;stop-opacity:1;"
   id="stop1255" />
					</linearGradient>
					
						<use
   xlink:href="#SVGID_00000111875695177170383510000016602436567954892179_"
   style="overflow:visible;fill:#4f6034;fill-opacity:1"
   id="use1258" />
					<clipPath
   id="SVGID_00000122710396830089565150000017280931975638227885_">
						<use
   xlink:href="#SVGID_00000111875695177170383510000016602436567954892179_"
   style="overflow:visible;"
   id="use1260" />
					</clipPath>
					<g
   clip-path="url(#SVGID_00000122710396830089565150000017280931975638227885_)"
   id="g1271"
   style="clip-path:url(#SVGID_00000122710396830089565150000017280931975638227885_);">
						<path
   style="fill:#FFFFFF;"
   d="M1668.451,2909.514c-38.013-182.594-109.965-305.186-213.854-364.37        c-50.691-28.877-91.189-33.461-134.066-38.314c-46.821-5.298-95.234-10.778-159.273-49.502        c-62.316-37.683-84.599-73.875-112.812-119.694c-25.074-40.723-56.279-91.403-126.294-158.884        c-61.377-59.157-106.097-86.86-145.553-111.3c-43.17-26.741-77.268-47.864-116.852-99.735        c-64.495-84.511-98.2-192.799-100.181-321.856l3.64-0.057c1.969,128.261,35.423,235.825,99.435,319.703        c39.176,51.338,73.023,72.305,115.875,98.848c39.611,24.537,84.506,52.347,146.162,111.773        c70.346,67.801,101.686,118.7,126.868,159.598c27.953,45.4,50.034,81.26,111.595,118.485        c63.356,38.312,111.369,43.746,157.799,49.002c43.258,4.895,84.119,9.52,135.459,38.768        c104.835,59.723,177.379,183.13,215.617,366.791L1668.451,2909.514z"
   id="path1263" />
						<path
   style="fill:#FFFFFF;"
   d="M778.801,2078.701c-133.412,0-233.003-51.133-293.878-95.003        c-68.578-49.421-104.203-100.589-104.554-101.1l3.001-2.064c0.348,0.505,35.69,51.241,103.8,100.296        c62.453,44.979,165.972,97.62,305.147,94.056c-8.108-26.016-78.231-262.208,12.004-363.458l2.718,2.421        c-93.699,105.139-11.37,359.661-10.527,362.219l0.762,2.315l-2.437,0.074C789.44,2078.621,784.092,2078.701,778.801,2078.701z        "
   id="path1265" />
						<path
   style="fill:#FFFFFF;"
   d="M768.553,2295.762c-85.333,0-194.171-17.564-303.375-83.032l1.873-3.125        c135.909,81.479,271.276,88.295,360.889,79.664c89.21-8.59,151.945-33.73,162.06-37.987        c-36.207-133.444-3.967-321.723-3.637-323.618l3.587,0.627c-0.33,1.894-32.68,190.82,3.98,323.554l0.417,1.509l-1.43,0.638        c-0.657,0.293-66.937,29.494-164.629,38.901C810.122,2294.643,790.084,2295.762,768.553,2295.762z"
   id="path1267" />
						<path
   style="fill:#FFFFFF;"
   d="M884.305,2605.666c-6.508,0-13.075-0.071-19.725-0.214l0.078-3.64        c247.108,5.328,395.025-91.212,411.675-102.676c-100.251-124.431-60.999-327.689-60.589-329.735l3.57,0.714        c-0.408,2.039-39.643,205.292,61.072,328.235l1.216,1.484l-1.546,1.136C1278.594,2502.045,1134.712,2605.666,884.305,2605.666        z"
   id="path1269" />
					</g>
				</g>
			</g>
			<g
   id="g1284">
				
					<linearGradient
   id="SVGID_00000024713890321368155040000014888243413738003372_"
   gradientUnits="userSpaceOnUse"
   x1="-33.4988"
   y1="1534.9786"
   x2="-1156.8461"
   y2="2457.7295"
   gradientTransform="matrix(-0.9456 0.3251 0.3251 0.9456 168.4719 1020.5929)">
					<stop
   offset="0"
   style="stop-color:#b3d15c;stop-opacity:1;"
   id="stop1277" />
					<stop
   offset="0.30200839"
   style="stop-color:#758f29;stop-opacity:1;"
   id="stop1279" />
				</linearGradient>
				<path
   style="fill:url(#SVGID_00000024713890321368155040000014888243413738003372_);"
   d="M1649.097,2751.844      c-42.705-30.692-112.604-75.114-206.622-108.444c-167.227-59.284-243.863-24.309-314.656-95.006      c-73.28-73.18-25.815-145.259-113.549-226.979c-7.377-6.871-101.579-92.349-186.801-60.519      c-59.618,22.267-82.832,89.99-93.724,121.766c-42.273,123.325-17.693,311.24,113.875,403.928      c124.738,87.877,282.665,45.996,332.805,32.344c87.963-23.951,108.809-58.236,198.233-79.917      C1487.408,2712.649,1585.154,2732.181,1649.097,2751.844z"
   id="path1282" />
			</g>
		</g>
		<g
   id="g1351"
   inkscape:label="leafs right">
			<g
   id="g1313">
				<g
   id="g1311">
					<defs
   id="defs1289">
						<path
   id="SVGID_00000035511604215822467990000001943668412685884547_"
   d="M2213.503,2827.535        c-44.105-97.373-94.577-247.858-73.689-423.288c23.985-201.442,120.138-251.67,187.483-471.528        c96.135-313.841-73.134-515.224,50.155-621.347c60.124-51.752,162.298-62.889,230.17-24.864        c193.641,108.489,204.949,671.449-56.575,920.023c-118.279,112.423-232.09,112.975-315.037,250.836        C2162.715,2579.185,2185.549,2726.906,2213.503,2827.535z" />
					</defs>
					
						<linearGradient
   id="SVGID_00000162312714330245438460000011911964774892115328_"
   gradientUnits="userSpaceOnUse"
   x1="2182.2048"
   y1="2436.9829"
   x2="2639.9961"
   y2="1394.5404">
						<stop
   offset="0"
   style="stop-color:#b3d15c;stop-opacity:1;"
   id="stop1291" />
						<stop
   offset="0.30488861"
   style="stop-color:#758f29;stop-opacity:1;"
   id="stop1293" />
					</linearGradient>
					
						<use
   xlink:href="#SVGID_00000035511604215822467990000001943668412685884547_"
   style="overflow:visible;fill:url(#SVGID_00000162312714330245438460000011911964774892115328_);"
   id="use1296" />
					<clipPath
   id="SVGID_00000003070966120015370330000017021212778295493783_">
						<use
   xlink:href="#SVGID_00000035511604215822467990000001943668412685884547_"
   style="overflow:visible;"
   id="use1298" />
					</clipPath>
					<g
   style="opacity:0.5;clip-path:url(#SVGID_00000003070966120015370330000017021212778295493783_);"
   clip-path="url(#SVGID_00000003070966120015370330000017021212778295493783_)"
   id="g1309">
						<path
   style="fill:#FFFFFF;"
   d="M2165.823,2575.695l-3.584-0.509c6.22-43.836,16.258-87.337,29.837-129.295        c31.237-96.517,71.171-151.985,121.729-222.21c32.834-45.602,70.047-97.29,111.6-170.072        c77.727-136.132,101.276-183.517,118.884-257.508c34.863-146.523,13.413-272.165-2.474-334.017        c-22.538-87.742-61.664-169.319-116.287-242.469l2.898-2.167c54.906,73.53,94.236,155.535,116.895,243.734        c15.972,62.178,37.531,188.475,2.488,335.756c-17.714,74.433-41.334,121.977-119.259,258.466        c-41.652,72.947-78.925,124.716-111.809,170.392c-50.375,69.967-90.164,125.232-121.224,221.208        C2182.003,2488.766,2172.011,2532.064,2165.823,2575.695z"
   id="path1301" />
						<path
   style="fill:#FFFFFF;"
   d="M2561.223,1694.406l-0.375-2.955c-13.116-103.605-86.786-163.597-146.275-195.678        c-64.601-34.836-126.84-45.218-127.462-45.319l0.58-3.573c0.626,0.102,63.469,10.583,128.6,45.706        c59.656,32.173,133.4,92.108,147.746,195.38c10.458-7.823,52.747-41.405,88.083-97.431        c37.277-59.11,74.228-156.053,38.545-282.209l3.485-0.986c36.061,127.503-1.333,225.496-39.047,285.249        c-40.846,64.712-90.928,99.776-91.429,100.122L2561.223,1694.406z"
   id="path1303" />
						<path
   style="fill:#FFFFFF;"
   d="M2545.184,2031.427c-55.885,0-96.3-13.038-97.137-13.317l-1.442-0.481l0.226-1.502        c29.978-200.693-110.83-286.664-112.254-287.509l1.845-3.114c1.442,0.855,143.607,87.635,114.212,289.622        c16.979,5.12,178.954,49.772,298.552-66.106l2.516,2.598C2685.313,2015.947,2606.07,2031.427,2545.184,2031.427z"
   id="path1305" />
						<path
   style="fill:#FFFFFF;"
   d="M2448.216,2239.919c-16.438,0-30.904-1.346-43.285-3.313        c-50.488-8.025-77.292-27.281-78.409-28.096l-1.046-0.765l0.385-1.237c33.947-108.43-47.562-271.103-48.392-272.734        l3.23-1.636c0.831,1.636,82.364,164.337,49.014,274.165c11.639,7.638,118.1,71.551,294.233-15.378l1.604,3.245        C2553.542,2229.71,2493.455,2239.919,2448.216,2239.919z"
   id="path1307" />
					</g>
				</g>
			</g>
			<g
   id="g1340"
   style="display:inline">
				<g
   id="g1338">
					<defs
   id="defs1316">
						<path
   id="SVGID_00000020385763950979419320000015911560902983613114_"
   d="m 2043.385,2847.788 c -22.897,-82.074 -45.02,-211.733 10.327,-335.851 96.557,-216.533 320.219,-172.485 503.577,-413.152 147.886,-194.107 80.398,-325.151 252.746,-462.198 28.848,-22.94 180.81,-148.438 309.568,-96.781 72.556,29.108 105.56,101.463 111.755,115.046 93.638,205.289 -87.045,562.255 -353.193,745.458 -152.913,105.257 -208.429,82.319 -483.169,215.552 -161.439,78.289 -279.151,169.304 -351.611,231.926 z" />
					</defs>
					
						<linearGradient
   id="SVGID_00000054252798982608908370000009102303107459821702_"
   gradientUnits="userSpaceOnUse"
   x1="2829.9653"
   y1="1659.8734"
   x2="2421.2263"
   y2="2879.3923">
						<stop
   offset="0"
   style="stop-color:#b3d15c;stop-opacity:1;"
   id="stop1318" />
						<stop
   offset="0.9964"
   style="stop-color:#6165D7"
   id="stop1320" />
					</linearGradient>
					
						<use
   xlink:href="#SVGID_00000020385763950979419320000015911560902983613114_"
   style="overflow:visible;fill:url(#SVGID_00000054252798982608908370000009102303107459821702_)"
   id="use1323" />
					<clipPath
   id="SVGID_00000130624043779721816470000010792661746855366278_">
						<use
   xlink:href="#SVGID_00000020385763950979419320000015911560902983613114_"
   style="overflow:visible"
   id="use1325" />
					</clipPath>
					<g
   style="opacity:0.7"
   clip-path="url(#SVGID_00000130624043779721816470000010792661746855366278_)"
   id="g1336">
						<path
   style="fill:#ffffff"
   d="m 2030.158,2950.988 -3.605,-0.35 c 19.895,-204.362 84.23,-347.209 191.228,-424.576 52.389,-37.881 96.293,-47.742 142.777,-58.18 49.933,-11.214 101.566,-22.811 166.021,-72.024 62.639,-47.823 82.438,-89.482 107.507,-142.221 22.567,-47.482 50.651,-106.572 119.181,-188.664 60.066,-71.954 105.634,-107.525 145.837,-138.908 43.515,-33.968 77.886,-60.799 114.473,-121.337 59.773,-98.898 83.47,-219.963 70.443,-359.828 l 3.605,-0.336 c 13.102,140.654 -10.769,262.461 -70.952,362.037 -36.93,61.107 -71.535,88.12 -115.343,122.318 -40.062,31.272 -85.464,66.716 -145.286,138.373 -68.237,81.74 -96.212,140.603 -118.693,187.899 -25.274,53.183 -45.243,95.188 -108.575,143.545 -65.088,49.694 -117.114,61.379 -167.425,72.678 -46.113,10.356 -89.666,20.137 -141.451,57.583 -106.117,76.729 -169.957,218.709 -189.742,421.991 z"
   id="path1328" />
						<path
   style="fill:#ffffff"
   d="m 2880.465,1943.202 0.506,-2.368 c 0.615,-2.886 60.129,-289.755 -54.344,-393.164 l 2.425,-2.686 c 110.413,99.739 61.462,366.199 55.938,394.232 152.164,-12.49 258.738,-82.189 321.462,-138.625 68.312,-61.46 100.718,-120.784 101.036,-121.376 l 3.188,1.718 c -0.325,0.597 -33.028,60.472 -101.803,122.35 -63.466,57.104 -171.542,127.701 -325.989,139.733 z"
   id="path1330" />
						<path
   style="fill:#ffffff"
   d="m 2863.309,2180.41 c -102.863,0 -174.458,-22.681 -175.19,-22.917 l -1.481,-0.477 0.251,-1.536 c 24.21,-148.84 -33.35,-350.68 -33.933,-352.702 l 3.478,-1.004 c 0.583,2.022 57.967,203.233 34.276,352.726 11.045,3.306 82.647,23.464 181.223,22.234 98.555,-1.223 245.06,-24.67 383.337,-129.413 l 2.184,2.884 c -139.108,105.374 -286.479,128.938 -385.613,130.15 -2.866,0.037 -5.715,0.055 -8.532,0.055 z"
   id="path1332" />
						<path
   style="fill:#ffffff"
   d="m 2743.796,2533.082 c -90.408,0 -163.661,-13.081 -214.753,-26.375 -79.176,-20.604 -123.754,-46.181 -124.196,-46.438 l -1.65,-0.958 1.042,-1.598 c 95.144,-145.821 28.363,-362.449 27.677,-364.621 l 3.449,-1.089 c 0.689,2.179 67.467,218.839 -27.038,366.054 18.637,10.08 191.398,98.302 460.485,63.189 l 0.467,3.587 c -44.72,5.838 -86.684,8.249 -125.483,8.249 z"
   id="path1334" />
					</g>
				</g>
			</g>
			<g
   id="g1349">
				
					<linearGradient
   id="SVGID_00000141434404246119367690000017867023136861415849_"
   gradientUnits="userSpaceOnUse"
   x1="2141.7742"
   y1="607.142"
   x2="2098.3438"
   y2="981.7277"
   gradientTransform="matrix(0.8997 0.4363 -0.4363 0.8997 1672.8074 -88.4499)">
					<stop
   offset="0"
   style="stop-color:#b3d15c;stop-opacity:1;"
   id="stop1342" />
					<stop
   offset="0.30074781"
   style="stop-color:#758f29;stop-opacity:1;"
   id="stop1344" />
				</linearGradient>
				<path
   style="fill:url(#SVGID_00000141434404246119367690000017867023136861415849_);"
   d="M2062.006,2602.04      c50.448-27.746,132.257-66.841,238.823-90.711c189.545-42.458,268.242,5.627,354.476-61.908      c89.262-69.907,47.147-154.485,153.242-231.775c8.921-6.498,122.54-87.022,210.981-41.228      c61.871,32.037,78.201,108.694,85.864,144.661c29.737,139.594-21.672,340.603-176.852,424.053      c-147.122,79.118-313.265,12.844-365.966-8.583c-92.457-37.592-110.609-77.594-204.952-112.911      C2242.891,2580.689,2134.087,2589.073,2062.006,2602.04z"
   id="path1347" />
			</g>
		</g>
		<g
   id="g1454"
   inkscape:label="page">
			<g
   id="g1422">
				<g
   id="g1384">
					<g
   id="g1366">
						<path
   style="fill:#D8DEE8;"
   d="M2588.02,605.037l-1341.39-45.401c-30.668-1.038-55.579,22.722-55.579,53.073v2436.664        c0,30.351,24.911,53.538,55.579,51.793l1341.39-76.277c27.743-1.578,50.191-26.188,50.191-54.975V658.858        C2638.211,630.071,2615.763,605.976,2588.02,605.037z"
   id="path1353" />
						<g
   style="opacity:0.3;"
   id="g1357">
							<path
   style="fill:#D8DEE8;"
   d="M2037.647,2404.329c-22.813-278.613,148.335-393.612,83.069-646.038         c-80.673-312.02-390.951-325.393-496.619-631.367c-40.487-117.234-56.482-294.467,59.414-552.5l-436.881-14.787         c-30.668-1.038-55.579,22.722-55.579,53.073v2436.664c0,30.351,24.911,53.538,55.579,51.793l1196.066-68.013         C2138.39,2797.531,2051.668,2575.578,2037.647,2404.329z"
   id="path1355" />
						</g>
						
							<linearGradient
   id="SVGID_00000066509663830533812080000011522035872442280835_"
   gradientUnits="userSpaceOnUse"
   x1="2578.2251"
   y1="709.5212"
   x2="1588.1249"
   y2="2329.6833">
							<stop
   offset="0"
   style="stop-color:#FFFFFF"
   id="stop1359" />
							<stop
   offset="0.9964"
   style="stop-color:#EBEFF2"
   id="stop1361" />
						</linearGradient>
						<path
   style="fill:url(#SVGID_00000066509663830533812080000011522035872442280835_);"
   d="M2588.02,635.804L1246.63,591.95        c-12.571-0.411-22.806,9.37-22.806,21.804v2433.82c0,12.434,10.236,21.979,22.806,21.279l1341.39-74.73        c11.387-0.634,20.643-10.766,20.643-22.586V657.915C2608.663,646.095,2599.406,636.176,2588.02,635.804z"
   id="path1364" />
					</g>
					<g
   id="g1374">
						<path
   style="fill:#D8DEE8;"
   d="M2334.68,2478.294l-813.928,29.328c-19.214,0.692-34.81,16.816-34.81,36.013l0,0        c0,19.196,15.596,34.158,34.81,33.417l813.928-31.365c18.079-0.697,32.717-16.33,32.717-34.917l0,0        C2367.397,2492.183,2352.759,2477.643,2334.68,2478.294z"
   id="path1368" />
						<path
   style="fill:#D8DEE8;"
   d="M2334.68,2598.34l-813.928,32.956c-19.214,0.778-34.81,16.971-34.81,36.168l0,0        c0,19.197,15.596,34.089,34.81,33.263l813.928-34.993c18.079-0.777,32.717-16.475,32.717-35.062l0,0        C2367.397,2612.083,2352.759,2597.608,2334.68,2598.34z"
   id="path1370" />
						<path
   style="fill:#D8DEE8;"
   d="M2334.68,2718.385l-813.928,36.584c-19.214,0.864-34.81,17.126-34.81,36.324l0,0        c0,19.196,15.596,34.019,34.81,33.107l813.928-38.621c18.079-0.858,32.717-16.621,32.717-35.208l0,0        C2367.397,2731.983,2352.759,2717.573,2334.68,2718.385z"
   id="path1372" />
					</g>
					<g
   id="g1382">
						<path
   style="fill:#D8DEE8;"
   d="M1912.608,733.243l-409.427-11.596c-9.519-0.27-17.24,7.214-17.24,16.716l0,0        c0,9.502,7.721,17.413,17.24,17.671l409.427,11.089c9.234,0.25,16.715-7.127,16.715-16.476l0,0        C1929.323,741.295,1921.842,733.504,1912.608,733.243z"
   id="path1376" />
						<path
   style="fill:#D8DEE8;"
   d="M1912.608,793.591l-409.427-10.693c-9.519-0.248-17.24,7.252-17.24,16.754l0,0        c0,9.501,7.721,17.396,17.24,17.633l409.427,10.186c9.234,0.23,16.715-7.164,16.715-16.514l0,0        C1929.323,801.606,1921.842,793.832,1912.608,793.591z"
   id="path1378" />
						<path
   style="fill:#D8DEE8;"
   d="M1912.608,853.938l-409.427-9.79c-9.519-0.228-17.24,7.29-17.24,16.792l0,0        c0,9.501,7.721,17.379,17.24,17.595l409.427,9.283c9.234,0.209,16.715-7.201,16.715-16.55l0,0        C1929.323,861.917,1921.842,854.159,1912.608,853.938z"
   id="path1380" />
					</g>
				</g>
				<g
   id="g1418">
					<g
   id="g1407">
						
							<linearGradient
   id="SVGID_00000001622156449380859780000014817095586066033081_"
   gradientUnits="userSpaceOnUse"
   x1="1688.5006"
   y1="1121.8738"
   x2="1777.0665"
   y2="1922.5049">
							<stop
   offset="0"
   style="stop-color:#FFC444"
   id="stop1386" />
							<stop
   offset="0.9964"
   style="stop-color:#F36F56"
   id="stop1388" />
						</linearGradient>
						<path
   style="fill:url(#SVGID_00000001622156449380859780000014817095586066033081_);"
   d="M1754.852,1502.132        c26.581-50.286,76.33-86.009,134.624-92.668l4.071-248.494c-166.149,4.343-309.269,106.786-373.387,253.625L1754.852,1502.132        z"
   id="path1391" />
						
							<linearGradient
   id="SVGID_00000067210658810025018480000010179512990878231977_"
   gradientUnits="userSpaceOnUse"
   x1="1998.0563"
   y1="1759.5315"
   x2="2352.6133"
   y2="2475.667">
							<stop
   offset="0.0036"
   style="stop-color:#E38DDD"
   id="stop1393" />
							<stop
   offset="1"
   style="stop-color:#9571F6"
   id="stop1395" />
						</linearGradient>
						<path
   style="fill:url(#SVGID_00000067210658810025018480000010179512990878231977_);"
   d="M2080.729,1615.136        c-14.187,82.561-85.055,145.922-170.836,146.719c-25.359,0.235-49.496-5.024-71.318-14.684l-130.214,214.049        c60.194,31.966,128.885,49.434,201.532,48.103c216.015-3.959,390.991-172.996,410.712-385.121L2080.729,1615.136z"
   id="path1398" />
						
							<linearGradient
   id="SVGID_00000114069919910077946560000015868963101150430600_"
   gradientUnits="userSpaceOnUse"
   x1="1480.6575"
   y1="1471.649"
   x2="1955.4888"
   y2="2082.146">
							<stop
   offset="0"
   style="stop-color:#AA80F9"
   id="stop1400" />
							<stop
   offset="0.9964"
   style="stop-color:#6165D7"
   id="stop1402" />
						</linearGradient>
						<path
   style="fill:url(#SVGID_00000114069919910077946560000015868963101150430600_);"
   d="M1668.144,1936.849l130.587-214.235        c-39.343-32.289-64.5-81.615-64.5-137.028c0-13.389,1.48-26.431,4.266-38.978l-234.972-87.209        c-12.375,40.094-19.047,82.714-19.047,126.891C1484.478,1732.577,1557.402,1860.9,1668.144,1936.849z"
   id="path1405" />
					</g>
					<g
   id="g1416">
						
							<linearGradient
   id="SVGID_00000142872522348500869190000010444642246568458416_"
   gradientUnits="userSpaceOnUse"
   x1="2465.6453"
   y1="935.8579"
   x2="2086.2266"
   y2="1464.9559">
							<stop
   offset="0"
   style="stop-color:#FF9085"
   id="stop1409" />
							<stop
   offset="1"
   style="stop-color:#FB6FBB"
   id="stop1411" />
						</linearGradient>
						<path
   style="fill:url(#SVGID_00000142872522348500869190000010444642246568458416_);"
   d="M1936.005,1410.395        c78.387,12.212,139.307,77.282,146.581,157.933l396.995,15.689c0-0.177,0.003-0.354,0.003-0.532        c0-307.684-234.921-563.344-536.827-586.052L1936.005,1410.395z"
   id="path1414" />
					</g>
				</g>
				<path
   style="opacity:0.35;fill:#FFFFFF;"
   d="M2040.733,2404.227c-22.808-278.581,148.301-393.567,83.051-645.965      c-80.655-311.985-390.862-325.356-496.506-631.295c-38.807-112.384-55.11-279.926,45.792-521.076l-423.171-13.835      c-12.568-0.411-22.801,9.369-22.801,21.802v2433.536c0,12.433,10.233,21.977,22.801,21.277l1159.469-64.595      C2134.424,2779.141,2054.171,2568.368,2040.733,2404.227z"
   id="path1420" />
			</g>
			<g
   id="g1437">
				
					<linearGradient
   id="SVGID_00000086662371670228748510000007957988924786513829_"
   gradientUnits="userSpaceOnUse"
   x1="1647.0117"
   y1="392.168"
   x2="1032.0223"
   y2="1249.7681">
					<stop
   offset="0"
   style="stop-color:#96ff85;stop-opacity:1;"
   id="stop1424" />
					<stop
   offset="1"
   style="stop-color:#96fb6f;stop-opacity:1;"
   id="stop1426" />
				</linearGradient>
				<path
   style="opacity:0.3;fill:url(#SVGID_00000086662371670228748510000007957988924786513829_);"
   d="M1628.34,1232.887      l-860.046-8.56c-19.449-0.193-35.234-15.686-35.234-34.604V862.604c0-18.917,15.786-33.877,35.234-33.414l748.719,17.834      c18.415,0.439,33.326,15.69,33.326,34.066v281.15L1628.34,1232.887z"
   id="path1429" />
				<polygon
   style="opacity:0.67;fill:#FFFFFF;"
   points="1429.531,965.242 859.974,954.137 859.974,914.921 1429.531,926.812           "
   id="polygon1431" />
				<polygon
   style="opacity:0.67;fill:#FFFFFF;"
   points="1429.531,1042.101 859.974,1032.569 859.974,993.353 1429.531,1003.671           "
   id="polygon1433" />
				<polygon
   style="opacity:0.67;fill:#FFFFFF;"
   points="1429.531,1118.96 859.974,1111.001 859.974,1071.785 1429.531,1080.531           "
   id="polygon1435" />
			</g>
			<g
   id="g1452"
   inkscape:label="msg right">
				
					<linearGradient
   id="SVGID_00000098202772829522623660000011859954015650632368_"
   gradientUnits="userSpaceOnUse"
   x1="-7662.8687"
   y1="-3102.6675"
   x2="-8191.8091"
   y2="-2365.0625"
   gradientTransform="matrix(-1 0 0 -1 -5902 -287)">
					<stop
   offset="0"
   style="stop-color:#96ff85;stop-opacity:1;"
   id="stop1439" />
					<stop
   offset="1"
   style="stop-color:#96fb6f;stop-opacity:1;"
   id="stop1441" />
				</linearGradient>
				<path
   style="opacity:0.3;fill:url(#SVGID_00000098202772829522623660000011859954015650632368_);"
   d="M1914.172,2095.803      l580.004-12.466c15.098-0.324,27.325,12.073,27.325,27.69v270.046c0,15.617-12.227,28.689-27.325,29.198l-611.317,20.605      c-15.814,0.533-28.647-12.01-28.647-28.017V2049.86L1914.172,2095.803z"
   id="path1444" />
				<polygon
   style="opacity:0.67;fill:#FFFFFF;"
   points="1957.449,2324.417 2422.494,2310.512 2422.494,2343.151 1957.449,2357.621           "
   id="polygon1446" />
				<polygon
   style="opacity:0.67;fill:#FFFFFF;"
   points="1957.449,2258.008 2422.494,2245.234 2422.494,2277.873 1957.449,2291.212           "
   id="polygon1448" />
				<polygon
   style="opacity:0.67;fill:#FFFFFF;"
   points="1957.449,2191.599 2422.494,2179.956 2422.494,2212.595 1957.449,2224.803           "
   id="polygon1450" />
			</g>
		</g>
		<g
   id="g1584"
   inkscape:label="man right">
			
				<linearGradient
   id="SVGID_00000183210368642939256680000017839168574566770844_"
   gradientUnits="userSpaceOnUse"
   x1="5091.4746"
   y1="3758.0713"
   x2="5139.6167"
   y2="3800.8936"
   gradientTransform="matrix(0.9902 -0.14 0.14 0.9902 -2711.9221 206.9384)">
				<stop
   offset="0"
   style="stop-color:#444B8C"
   id="stop1456" />
				<stop
   offset="0.9964"
   style="stop-color:#26264F"
   id="stop1458" />
			</linearGradient>
			<path
   style="fill:url(#SVGID_00000183210368642939256680000017839168574566770844_);"
   d="M2869.323,3237.155     c1.37-7.547,25.742-14.379,37.81-4.269c5.993,5.019,10.119,15.193,6.652,19.789c-1.262,1.671,3.905,4.612-1.045,4.669     C2896.322,3257.535,2867.96,3244.655,2869.323,3237.155z"
   id="path1461" />
			
				<linearGradient
   id="SVGID_00000013908417650264737110000011763688242665692597_"
   gradientUnits="userSpaceOnUse"
   x1="4924.0288"
   y1="3538.7051"
   x2="4924.0288"
   y2="3454.8379"
   gradientTransform="matrix(0.9988 0.0498 -0.0498 0.9988 -1835.4758 -528.7908)">
				<stop
   offset="0"
   style="stop-color:#FFC444"
   id="stop1463" />
				<stop
   offset="0.9964"
   style="stop-color:#F36F56"
   id="stop1465" />
			</linearGradient>
			<path
   style="fill:url(#SVGID_00000013908417650264737110000011763688242665692597_);"
   d="M2895.974,3237.196l25.284,1.261     c-8.759-15.925,1.772-59.24,1.772-59.24l-27.302,0.802c0,0,0.672,12.575,2.336,31.254     C2898.635,3217.667,2897.584,3227.3,2895.974,3237.196z"
   id="path1468" />
			
				<linearGradient
   id="SVGID_00000159456352314215599750000017343966120590024612_"
   gradientUnits="userSpaceOnUse"
   x1="5096.3149"
   y1="3752.6318"
   x2="5144.4561"
   y2="3795.4534"
   gradientTransform="matrix(0.9902 -0.14 0.14 0.9902 -2711.9221 206.9384)">
				<stop
   offset="0"
   style="stop-color:#444B8C"
   id="stop1470" />
				<stop
   offset="0.9964"
   style="stop-color:#26264F"
   id="stop1472" />
			</linearGradient>
			<path
   style="fill:url(#SVGID_00000159456352314215599750000017343966120590024612_);"
   d="M2892.646,3236.814     c0,0,30.177-6.953,33.441-0.967c3.265,5.987,5.799,22.014-13.347,21.497C2893.593,3256.828,2890.945,3241.89,2892.646,3236.814z"
   id="path1475" />
			
				<linearGradient
   id="SVGID_00000047051813185773795960000015047870552281440168_"
   gradientUnits="userSpaceOnUse"
   x1="5148.0024"
   y1="3268.4338"
   x2="5196.146"
   y2="3311.2576"
   gradientTransform="matrix(1 0 0 1 -2609.0793 0)">
				<stop
   offset="0"
   style="stop-color:#444B8C"
   id="stop1477" />
				<stop
   offset="0.9964"
   style="stop-color:#26264F"
   id="stop1479" />
			</linearGradient>
			<path
   style="fill:url(#SVGID_00000047051813185773795960000015047870552281440168_);"
   d="M2549.276,3291.896     c2.413-7.28,27.502-10.633,38.037,1.065c5.229,5.807,7.892,16.459,3.816,20.523c-1.483,1.48,3.22,5.115-1.689,4.479     C2573.158,3315.855,2546.878,3299.13,2549.276,3291.896z"
   id="path1482" />
			
				<linearGradient
   id="SVGID_00000037666643556930303420000017696459755602873005_"
   gradientUnits="userSpaceOnUse"
   x1="4965.9546"
   y1="2995.54"
   x2="4965.9546"
   y2="2911.6704"
   gradientTransform="matrix(0.9813 0.1926 -0.1926 0.9813 -1708.8574 -582.0115)">
				<stop
   offset="0"
   style="stop-color:#FFC444"
   id="stop1484" />
				<stop
   offset="0.9964"
   style="stop-color:#F36F56"
   id="stop1486" />
			</linearGradient>
			<path
   style="fill:url(#SVGID_00000037666643556930303420000017696459755602873005_);"
   d="M2578.924,3298.909l24.84,4.875     c-6.384-17.017,10.253-58.372,10.253-58.372l-27.134-3.124c0,0-1.14,12.542-2.171,31.267     C2584.358,3279.964,2581.937,3289.347,2578.924,3298.909z"
   id="path1489" />
			
				<linearGradient
   id="SVGID_00000108300762083494215740000000560344308290912686_"
   gradientUnits="userSpaceOnUse"
   x1="5152.8418"
   y1="3262.9939"
   x2="5200.9854"
   y2="3305.8174"
   gradientTransform="matrix(1 0 0 1 -2609.0793 0)">
				<stop
   offset="0"
   style="stop-color:#444B8C"
   id="stop1491" />
				<stop
   offset="0.9964"
   style="stop-color:#26264F"
   id="stop1493" />
			</linearGradient>
			<path
   style="fill:url(#SVGID_00000108300762083494215740000000560344308290912686_);"
   d="M2572.417,3294.823     c0,0,30.854-2.661,33.248,3.725c2.394,6.383,2.661,22.607-16.225,19.416C2570.555,3314.772,2570.022,3299.61,2572.417,3294.823z"
   id="path1496" />
			
				<linearGradient
   id="SVGID_00000070826442816670874200000016861299521006303917_"
   gradientUnits="userSpaceOnUse"
   x1="2800.6353"
   y1="2805.0244"
   x2="2999.5659"
   y2="2805.0244">
				<stop
   offset="0"
   style="stop-color:#311944"
   id="stop1498" />
				<stop
   offset="1"
   style="stop-color:#6B3976"
   id="stop1500" />
			</linearGradient>
			<path
   style="fill:url(#SVGID_00000070826442816670874200000016861299521006303917_);"
   d="M2800.635,2424.556     c6.767,115.68,16.24,235.973,29,360.463c14.783,144.222,32.743,282.024,52.882,412.993c24.824,8.513,47.765,0,47.765,0     s29.025-47.541,51.177-173.892c14.212-81.072,15.193-80.05,15.353-94.191c0.803-71.35-24.228-92.006-29-155.778     c-4.415-59.003,14.366-76.674,25.588-143.098c8.629-51.078,11.865-125.514-15.353-222.799     C2918.91,2413.688,2859.772,2419.122,2800.635,2424.556z"
   id="path1503" />
			
				<linearGradient
   id="SVGID_00000052088230600971158050000002136876422086847377_"
   gradientUnits="userSpaceOnUse"
   x1="2800.6353"
   y1="2805.0244"
   x2="2983.3633"
   y2="2805.0244">
				<stop
   offset="0"
   style="stop-color:#311944"
   id="stop1505" />
				<stop
   offset="1"
   style="stop-color:#6B3976"
   id="stop1507" />
			</linearGradient>
			<path
   style="opacity:0.3;fill:url(#SVGID_00000052088230600971158050000002136876422086847377_);"
   d="M2800.635,2424.556     c6.766,115.679,16.24,235.972,29,360.462c14.783,144.222,32.743,282.024,52.882,412.993c24.824,8.513,47.764,0,47.764,0     c-0.315-12.124-1.161-30.39-3.692-52.456c-6.715-58.529-17.417-75.182-18.516-111.098c-1.405-45.933,15.226-47.347,18.516-92.581     c5.1-70.112-33.398-86.739-37.032-148.13c-3.84-64.866,36.776-86.212,67.893-166.647     c18.368-47.481,34.672-118.769,20.597-218.846C2918.91,2413.688,2859.773,2419.122,2800.635,2424.556z"
   id="path1510" />
			
				<linearGradient
   id="SVGID_00000041979174089816127060000005210625048418291604_"
   gradientUnits="userSpaceOnUse"
   x1="3168.634"
   y1="2941.1772"
   x2="2621.3762"
   y2="2842.4241">
				<stop
   offset="0"
   style="stop-color:#311944"
   id="stop1512" />
				<stop
   offset="0.7407"
   style="stop-color:#5C3169"
   id="stop1514" />
				<stop
   offset="1"
   style="stop-color:#6B3976"
   id="stop1516" />
			</linearGradient>
			<path
   style="fill:url(#SVGID_00000041979174089816127060000005210625048418291604_);"
   d="M2676.107,2420.933     c-33.99,114.498-66.931,256.717-85.293,422.049c-17.821,160.457-17.497,302.954-10.235,420.238     c10.804,3.019,21.608,6.038,32.411,9.057c62.823-65.73,85.253-126.144,93.824-170.269c12.679-65.271-6.425-87.404,10.235-161.213     c3.833-16.979,9.225-35.215,71.646-157.589c59.577-116.796,71.792-133.76,81.882-175.703     c14.403-59.871,10.604-112.967,5.118-148.533C2809.165,2446.293,2742.637,2433.613,2676.107,2420.933z"
   id="path1519" />
			<g
   id="g1532">
				<path
   style="fill:#26264F;"
   d="M2408.215,2173.462l-106.606-249.723c-5.327-12.477,1.826-26.749,15.008-29.952l195.28-47.425      c10.554-2.563,21.396,2.977,25.503,13.031l98.055,240.015c4.883,11.952-1.553,25.517-13.899,29.295l-186.728,57.133      C2424.098,2189.118,2412.621,2183.781,2408.215,2173.462z"
   id="path1521" />
				
					<linearGradient
   id="SVGID_00000021814909526251843390000015711401201289309102_"
   gradientUnits="userSpaceOnUse"
   x1="2492.7644"
   y1="2021.524"
   x2="2242.6211"
   y2="1932.7633">
					<stop
   offset="0"
   style="stop-color:#FFC444"
   id="stop1523" />
					<stop
   offset="0.6366"
   style="stop-color:#F78E50"
   id="stop1525" />
					<stop
   offset="0.9964"
   style="stop-color:#F36F56"
   id="stop1527" />
				</linearGradient>
				<path
   style="fill:url(#SVGID_00000021814909526251843390000015711401201289309102_);"
   d="M2413.04,2161.451l-99.579-233.26      c-4.974-11.653,1.706-24.986,14.02-27.976l182.406-44.298c9.858-2.394,19.984,2.78,23.821,12.171l91.59,224.191      c4.561,11.164-1.45,23.833-12.983,27.363l-174.417,53.366C2427.877,2176.075,2417.156,2171.09,2413.04,2161.451z"
   id="path1530" />
			</g>
			
				<linearGradient
   id="SVGID_00000133526198244541571680000008624929337781782943_"
   gradientUnits="userSpaceOnUse"
   x1="2354.5598"
   y1="2002.9725"
   x2="2325.1331"
   y2="2137.3108">
				<stop
   offset="0"
   style="stop-color:#FFC444"
   id="stop1534" />
				<stop
   offset="0.9964"
   style="stop-color:#F36F56"
   id="stop1536" />
			</linearGradient>
			<path
   style="fill:url(#SVGID_00000133526198244541571680000008624929337781782943_);"
   d="M2351.565,2092.881l-3.199-29.426     l-16.955-32.321c-2.31-4.402-3.515-9.297-3.515-14.268v-32.095l20.47,47.339c0,0,13.434-12.155,18.552-14.714     c5.117-2.559,4.478,7.676,0.64,11.515c-3.839,3.837,1.919,35.183-1.919,38.382l1.279,19.191L2351.565,2092.881z"
   id="path1539" />
			
				<linearGradient
   id="SVGID_00000024686151249440778260000001887435614260835464_"
   gradientUnits="userSpaceOnUse"
   x1="2506.6897"
   y1="2170.8384"
   x2="3061.7214"
   y2="2170.8384">
				<stop
   offset="0"
   style="stop-color:#FF9085"
   id="stop1541" />
				<stop
   offset="1"
   style="stop-color:#FB6FBB"
   id="stop1543" />
			</linearGradient>
			<path
   style="fill:url(#SVGID_00000024686151249440778260000001887435614260835464_);"
   d="M2514.049,1905.448     c15.919-38.928,50.089-61.316,67.808-72.926c41.925-27.469,68.765-22.454,165.043-37.103     c128.311-19.523,143.669-38.022,186.793-23.029c56.646,19.693,86.235,71.113,99.793,94.676     c68.356,118.793-11.563,179.172,8.956,415.807c8.379,96.642,29.865,180.624-21.75,230.292     c-10.868,10.458-23.024,15.927-47.338,26.868c-96.424,43.386-182.876,35.907-235.411,30.706     c-57.807-5.724-87.024-9.002-102.352-29.427c-24.484-32.625,0.72-74.09,5.118-145.852c3.158-51.521-8.557-92.348-31.985-173.999     C2554.26,2031.638,2483.549,1980.029,2514.049,1905.448z"
   id="path1546" />
			<g
   id="g1568">
				<g
   id="g1564">
					
						<linearGradient
   id="SVGID_00000165915650398551024890000000786621803394228912_"
   gradientUnits="userSpaceOnUse"
   x1="5961.4736"
   y1="1118.0994"
   x2="6173.7666"
   y2="1385.1909"
   gradientTransform="matrix(0.9663 0.2576 -0.2576 0.9663 -2744.3408 -923.8408)">
						<stop
   offset="0"
   style="stop-color:#FFC444"
   id="stop1548" />
						<stop
   offset="0.9964"
   style="stop-color:#F36F56"
   id="stop1550" />
					</linearGradient>
					<path
   style="fill:url(#SVGID_00000165915650398551024890000000786621803394228912_);"
   d="M2728.821,1725.396       c-5.842-20.811,4.371-40.084,6.622-44.237c9.424-17.386,11.839-19.761,16.335-22.772l6.251-3.856c0,0,0.362-0.145,0.743-0.281       c4.011-1.428,17.682-1.843,20.452-1.251c8.847,1.889,18.267,37.933,15.579,88.891c0.367,1.942,0.721,3.901,1.063,5.875       c1.393,8.049,2.5,15.936,3.356,23.648c0.818,7.377,11.279,7.208,18.687,6.735c30.066-1.919,44.779,0.64,46.059,5.117       c2.397,8.391-33.265,35.824-77.3,41.995c-59.098,0.44-107.173-5.853-102.006-15.159c2.295-4.132,48.084-16.097,60.962-27.955       c11.791-10.86,10.83-22.07,11.8-30.096C2753.849,1750.194,2733.12,1740.728,2728.821,1725.396z"
   id="path1553" />
					<path
   style="fill:#26264F;"
   d="M2739.69,1640.055c0.052,15.787,7.491,32.647,11.281,35.357c0.489,0.35,3.244,2.526,5.718,6.246       c0.337,0.506,0.635,1.099,0.899,1.866c3.458,9.948-12.36,21.655-9.307,26.111c2.215,3.231,12.966-1.09,14.244,1.701       c1.204,2.625-7.73,8.064-6.362,11.209c1.032,2.375,6.53,0.203,9.998,3.84c1.729,1.812,1.221,3.247,3.053,8.786       c1.035,3.132,2.483,6.559,3.606,8.466c5.457,9.27,20.909,12.656,23.883,8.946c0.827-1.035,0.116-1.903,0.962-5.372       c0,0,0.783-3.215,3.021-6.932c3.196-5.312,10.912-9.11,18.698-14.716c14.418-10.383,18.337-19.234,19.513-22.224       c0.418-1.065,0.678-1.869,0.866-2.448c3.749-11.636,3.766-28.728-1.465-39.24c-8.763-17.608-28.533-9.248-44.714-26.695       c-18.671-20.129-7.551-47.643-17.683-50.682C2764.736,1580.923,2739.594,1610.864,2739.69,1640.055z"
   id="path1555" />
					
						<linearGradient
   id="SVGID_00000125604944289655648270000015992948710944214953_"
   gradientUnits="userSpaceOnUse"
   x1="5935.0864"
   y1="1058.6733"
   x2="6172.1182"
   y2="1356.8894"
   gradientTransform="matrix(0.9663 0.2576 -0.2576 0.9663 -2744.3408 -923.8408)">
						<stop
   offset="0"
   style="stop-color:#FFC444"
   id="stop1557" />
						<stop
   offset="0.9964"
   style="stop-color:#F36F56"
   id="stop1559" />
					</linearGradient>
					<path
   style="fill:url(#SVGID_00000125604944289655648270000015992948710944214953_);"
   d="M2753.957,1705.923       c3.87-5.317,10.668-0.321,10.708,6.558c0.041,6.878-6.625,14.03-13.092,12.672       C2745.107,1723.795,2748.75,1713.08,2753.957,1705.923z"
   id="path1562" />
				</g>
				<path
   style="fill:#26264F;"
   d="M2757.095,1694.415l-8.976,11.678c0,0-9.677,14.306-15.327,6.469      c-4.615-6.404-5.812-6.262-6.094-5.993c-0.053,0.05-0.068,0.128-0.081,0.124c-0.081-0.022,0.677-3.188,1.358-5.97      c-2.389,3.43-5.683,8.995-7.677,16.482c-1.937,7.272-4.013,15.058,0.09,22.538c0.237,0.432,4.757,8.393,13.197,10.319      c0,0,3.319,0.757,17.342-1.707c0,0-15.327-11.122-15.563-13.765c-0.635-7.185,9.329-11.067,16.727-25.797      C2754.943,1703.112,2756.349,1697.96,2757.095,1694.415z"
   id="path1566" />
			</g>
			
				<linearGradient
   id="SVGID_00000120545904783109447650000010467922843798070954_"
   gradientUnits="userSpaceOnUse"
   x1="2494.8196"
   y1="2122.9871"
   x2="2835.1414"
   y2="2447.9556">
				<stop
   offset="0"
   style="stop-color:#FF9085"
   id="stop1570" />
				<stop
   offset="1"
   style="stop-color:#FB6FBB"
   id="stop1572" />
			</linearGradient>
			<path
   style="opacity:0.3;fill:url(#SVGID_00000120545904783109447650000010467922843798070954_);"
   d="M2787.842,2502.929     c-17.007-33.863,24.667-78.876-2.559-130.499c-23.123-43.844-65.127-34.022-84.44-74.206     c-23.327-48.535,27.405-84.809,25.588-158.646c-2.172-88.27-78.124-176.63-122.822-168.881     c-28.92,5.013-32.636,48.158-52.984,95.392c18.005,39.482,39.042,88.946,58.101,155.371     c23.428,81.651,35.143,122.478,31.985,173.999c-4.398,71.761-29.602,113.227-5.118,145.852     c15.328,20.425,44.545,23.703,102.352,29.427c52.535,5.201,138.987,12.68,235.411-30.706     c12.205-5.492,21.342-9.605,28.795-13.663C2851.506,2548.992,2801.331,2529.789,2787.842,2502.929z"
   id="path1575" />
			
				<linearGradient
   id="SVGID_00000059273800402394748570000005505551124908879238_"
   gradientUnits="userSpaceOnUse"
   x1="2345.2549"
   y1="2039.3842"
   x2="2648.6389"
   y2="2039.3842">
				<stop
   offset="0"
   style="stop-color:#FF9085"
   id="stop1577" />
				<stop
   offset="1"
   style="stop-color:#FB6FBB"
   id="stop1579" />
			</linearGradient>
			<path
   style="fill:url(#SVGID_00000059273800402394748570000005505551124908879238_);"
   d="M2345.808,2087.123     c9.382-4.051,18.764-8.103,28.147-12.154c15.857,16.218,36.082,31.987,53.095,26.866c25.36-7.631,19.019-54.285,49.896-136.256     c34.986-92.876,74.681-116.749,94.676-125.381c11.168-4.822,18.879-8.023,28.147-5.758     c42.646,10.425,56.745,121.553,44.779,204.705c-6.742,46.849-19.961,138.711-95.316,182.315     c-10.704,6.195-69.627,40.291-127.94,13.434C2371.475,2211.951,2340.693,2153.086,2345.808,2087.123z"
   id="path1582" />
		</g>
		<g
   id="g1701"
   inkscape:label="man">
			<g
   id="g1600">
				
					<linearGradient
   id="SVGID_00000135656076482183921350000006626912663136168587_"
   gradientUnits="userSpaceOnUse"
   x1="2281.0698"
   y1="1272.3229"
   x2="1778.3779"
   y2="1875.5524">
					<stop
   offset="0"
   style="stop-color:#311944"
   id="stop1586" />
					<stop
   offset="1"
   style="stop-color:#A03976"
   id="stop1588" />
				</linearGradient>
				<polygon
   style="fill:url(#SVGID_00000135656076482183921350000006626912663136168587_);"
   points="1791.563,1760.978       2300.177,1343.665 2302.833,1344.958 1798.227,1772.42     "
   id="polygon1591" />
				
					<linearGradient
   id="SVGID_00000093152218227397345710000010771579182131615674_"
   gradientUnits="userSpaceOnUse"
   x1="1863.4856"
   y1="1706.0767"
   x2="1610.7814"
   y2="1937.0426">
					<stop
   offset="0"
   style="stop-color:#FFC444"
   id="stop1593" />
					<stop
   offset="0.9964"
   style="stop-color:#F36F56"
   id="stop1595" />
				</linearGradient>
				<path
   style="fill:url(#SVGID_00000093152218227397345710000010771579182131615674_);"
   d="M1760.494,1788.727l19.912-21.748      l10.365-23.98c1.79-4.142,4.641-7.74,8.268-10.428l5.95-4.414c3.412-2.531,7.549-3.898,11.799-3.898h19.525      c0,0-3.402,6.366-8.943,7.339c-5.542,0.974-17.126,14.05-17.126,14.05l-1.575,15.33l22.153-16.171l23.613-27.139v15.066      c0,5.152-1.855,10.133-5.224,14.032l-19.155,22.166c-4.729,5.473-11.237,9.103-18.379,10.253l-4.724,0.76      c-9.827,1.581-18.571,7.13-24.189,15.345l-13.47,19.703L1760.494,1788.727z"
   id="path1598" />
			</g>
			
				<linearGradient
   id="SVGID_00000034803756400011325960000010626505788948955286_"
   gradientUnits="userSpaceOnUse"
   x1="633.7691"
   y1="2699.2942"
   x2="693.5485"
   y2="2299.8594">
				<stop
   offset="0"
   style="stop-color:#FFC444"
   id="stop1602" />
				<stop
   offset="0.9964"
   style="stop-color:#F36F56"
   id="stop1604" />
			</linearGradient>
			<path
   style="fill:url(#SVGID_00000034803756400011325960000010626505788948955286_);"
   d="M685.605,2511.316     c0,0-5.52,25.957-10.325,47.819c-4.805,21.862-24.028,38.63-32.439,56.076c-8.409,17.448-12.187-2.977-14.502-15.592     c-2.317-12.615,0-38.66,10.408-47.576c10.409-8.916,18.32-16.7,17.815-18.501c-0.504-1.802,6.684-31.838,6.684-31.838     L685.605,2511.316z"
   id="path1607" />
			<g
   id="g1651">
				
					<linearGradient
   id="SVGID_00000070099757048733650650000012283544780994498701_"
   gradientUnits="userSpaceOnUse"
   x1="959.4648"
   y1="3397.4441"
   x2="910.5544"
   y2="3109.415">
					<stop
   offset="0"
   style="stop-color:#AA80F9"
   id="stop1609" />
					<stop
   offset="0.9964"
   style="stop-color:#6165D7"
   id="stop1611" />
				</linearGradient>
				<path
   style="fill:url(#SVGID_00000070099757048733650650000012283544780994498701_);"
   d="M916.327,3291.647      c-1.311-5.408-0.431-12.641,4.283-17.493c6.355-6.539,16.995-5.986,23.674-2.96c3.893,1.761,6.919,4.58,17.613,26.88      c11.303,23.569,11.254,27.369,9.435,29.519c-3.698,4.373-14.069,1.147-16.303,0.451c-7.431-2.309-9.246-5.833-24.553-20.168      C920.098,3298.158,917.522,3296.583,916.327,3291.647z"
   id="path1614" />
				
					<linearGradient
   id="SVGID_00000070111084440837582670000017465698669419120018_"
   gradientUnits="userSpaceOnUse"
   x1="930.5684"
   y1="3285.6375"
   x2="946.8721"
   y2="3115.3547">
					<stop
   offset="0"
   style="stop-color:#FFC444"
   id="stop1616" />
					<stop
   offset="0.9964"
   style="stop-color:#F36F56"
   id="stop1618" />
				</linearGradient>
				<path
   style="fill:url(#SVGID_00000070111084440837582670000017465698669419120018_);"
   d="M923.555,3254.808l2.59,27.318      c6.222,3.235,10.084,2.974,12.119,0l5.222-27.318H923.555z"
   id="path1621" />
				
					<linearGradient
   id="SVGID_00000153663070685995915530000002914691977958021043_"
   gradientUnits="userSpaceOnUse"
   x1="1226.4019"
   y1="3352.1135"
   x2="1177.4923"
   y2="3064.0896">
					<stop
   offset="0"
   style="stop-color:#AA80F9"
   id="stop1623" />
					<stop
   offset="0.9964"
   style="stop-color:#6165D7"
   id="stop1625" />
				</linearGradient>
				<path
   style="fill:url(#SVGID_00000153663070685995915530000002914691977958021043_);"
   d="M1184.774,3288.234      c-3.657-4.195-6.208-11.02-4.261-17.498c2.625-8.73,12.321-13.145,19.644-13.539c4.266-0.23,8.251,0.876,28.021,15.737      c20.892,15.707,22.602,19.102,21.978,21.848c-1.266,5.584-11.956,7.501-14.261,7.914c-7.657,1.377-10.894-0.914-31.085-6.581      C1191.123,3292.274,1188.111,3292.063,1184.774,3288.234z"
   id="path1628" />
				
					<linearGradient
   id="SVGID_00000098194487464805007020000008573538893976776382_"
   gradientUnits="userSpaceOnUse"
   x1="1190.0562"
   y1="3310.4807"
   x2="1206.3591"
   y2="3140.2046">
					<stop
   offset="0"
   style="stop-color:#FFC444"
   id="stop1630" />
					<stop
   offset="0.9964"
   style="stop-color:#F36F56"
   id="stop1632" />
				</linearGradient>
				<path
   style="fill:url(#SVGID_00000098194487464805007020000008573538893976776382_);"
   d="M1186.588,3242.613l2.591,27.317      c6.221,3.235,10.084,2.973,12.119,0l5.222-27.317H1186.588z"
   id="path1635" />
				
					<linearGradient
   id="SVGID_00000152254607562060135430000004256580678830328464_"
   gradientUnits="userSpaceOnUse"
   x1="979.4489"
   y1="3263.4109"
   x2="1233.0579"
   y2="2310.5659">
					<stop
   offset="0"
   style="stop-color:#444B8C"
   id="stop1637" />
					<stop
   offset="0.9964"
   style="stop-color:#26264F"
   id="stop1639" />
				</linearGradient>
				<path
   style="fill:url(#SVGID_00000152254607562060135430000004256580678830328464_);"
   d="M916.564,3260.155      c9.828,0.594,19.657,1.183,29.486,1.778c20.812-101.515,43.662-205.417,68.758-311.522      c27.505-116.296,56.245-229.034,85.862-338.123c9.388,41.523,18.679,90.089,25.998,144.683      c10.863,81.034,13.061,143.123,13.587,160.317c2.681,87.902-4.981,98.283-1.359,153.163      c2.848,43.148,12.193,106.542,43.476,183.537c9.369-0.573,18.74-1.136,28.109-1.704c20.507-99.2,38.081-219.751,43.047-357.445      c6.089-168.856-8.526-315.164-27.679-430.551c-85.141,2.643-170.281,5.292-255.42,7.935      c-26.577,59.338-38.685,110.079-44.822,145.759c-12.334,71.705-4.77,107.087-14.051,229.252      c-4.797,63.134-8.298,73.147-11.774,115.079C894.017,3031.751,893.016,3132.04,916.564,3260.155z"
   id="path1642" />
				
					<linearGradient
   id="SVGID_00000178912484654271219720000005477832369557267083_"
   gradientUnits="userSpaceOnUse"
   x1="895.9446"
   y1="3241.1853"
   x2="1149.5536"
   y2="2288.3403">
					<stop
   offset="0"
   style="stop-color:#444B8C"
   id="stop1644" />
					<stop
   offset="0.9964"
   style="stop-color:#26264F"
   id="stop1646" />
				</linearGradient>
				<path
   style="opacity:0.3;fill:url(#SVGID_00000178912484654271219720000005477832369557267083_);"
   d="M973.143,3017.826      c7.768-82.552-22.017-80.849-8.151-152.166c12.759-65.617,39.818-76.55,59.779-160.318      c16.021-67.235,3.784-81.984,16.304-111.406c15.468-36.354,60.649-76.039,190.518-92.901c-1.86-12.546-3.77-24.847-5.745-36.747      c-85.141,2.643-170.28,5.292-255.42,7.935c-26.577,59.338-38.685,110.079-44.822,145.759      c-12.333,71.705-4.77,107.087-14.051,229.252c-4.797,63.134-8.296,73.147-11.774,115.079      c-5.762,69.438-6.762,169.727,16.785,297.841c9.828,0.594,19.658,1.183,29.486,1.778c0.605-2.951,1.252-5.95,1.861-8.905      c-4.962-8.047-9.474-17.084-12.81-27.333C913.544,3159.462,963.437,3120.997,973.143,3017.826z"
   id="path1649" />
			</g>
			<g
   id="g1667">
				
					<linearGradient
   id="SVGID_00000042736369064498561900000003256649479648780979_"
   gradientUnits="userSpaceOnUse"
   x1="1441.4254"
   y1="1686.8289"
   x2="876.2393"
   y2="2434.071">
					<stop
   offset="0"
   style="stop-color:#FFC444"
   id="stop1653" />
					<stop
   offset="0.9964"
   style="stop-color:#F36F56"
   id="stop1655" />
				</linearGradient>
				<path
   style="fill:url(#SVGID_00000042736369064498561900000003256649479648780979_);"
   d="M651.151,2516.495      c12.68,2.266,25.361,4.526,38.041,6.792c7.832-23.723,19.198-59.488,31.444-103.525c14.001-50.355,21.19-82.898,24.259-94.833      c12.205-47.489,47.893-114.119,153.078-195.228c-1.045,51.6-1.855,94.053-2.4,123.22      c-4.374,234.017-4.122,276.496,26.962,299.831c27.029,20.288,41.958-0.477,164.736,1.857      c111.974,2.128,135.542,20.082,163.977-0.477c46.145-33.367,28.221-112.58,28.944-211.542      c0.597-81.666,14.039-197.229,73.366-338.297c43.68,4.24,116.724,5.398,199.717-23.097      c128.893-44.251,202.136-132.657,229.608-169.827c-9.057-12.227-18.115-24.455-27.172-36.682      c-46.348,20.23-117.978,46.936-208.415,61.716c-156.775,25.617-228.85-7.684-374.434-1.937      c-83.847,3.312-255.098,10.073-370.904,97.822C588.99,2093.651,643.511,2468.295,651.151,2516.495z"
   id="path1658" />
				
					<linearGradient
   id="SVGID_00000137814662035313959190000003914158715507968408_"
   gradientUnits="userSpaceOnUse"
   x1="1456.7035"
   y1="1698.3838"
   x2="891.5162"
   y2="2445.6277">
					<stop
   offset="0"
   style="stop-color:#FFC444"
   id="stop1660" />
					<stop
   offset="0.9964"
   style="stop-color:#F36F56"
   id="stop1662" />
				</linearGradient>
				<path
   style="opacity:0.3;fill:url(#SVGID_00000137814662035313959190000003914158715507968408_);"
   d="M1057.378,2489.323      c-6.482-36.147,12.986-51.369,2.717-92.387c-14.49-57.884-60.96-58.33-72.007-107.33      c-10.534-46.73,28.475-60.756,38.042-134.504c7.032-54.218-2.9-132.594-39.399-145.373      c-45.408-15.895-112.145,76.667-119.559,86.952c-25.656,35.584-40.565,72.33-49.29,105.165      c20.774-22.517,46.978-46.612,80.092-72.144c-1.045,51.6-1.854,94.053-2.4,123.22c-4.374,234.017-4.122,276.496,26.963,299.831      c27.028,20.288,41.958-0.477,164.735,1.857c3.51,0.069,6.684,0.191,10.023,0.287      C1070.769,2530.617,1060.706,2507.882,1057.378,2489.323z"
   id="path1665" />
			</g>
			<g
   id="g1699">
				
					<linearGradient
   id="SVGID_00000097485541299093526790000000855943499838051508_"
   gradientUnits="userSpaceOnUse"
   x1="-824.0784"
   y1="2470.9438"
   x2="-824.0784"
   y2="2264.4553"
   gradientTransform="matrix(-0.827 0.5622 0.5622 0.827 -938.6846 289.0357)">
					<stop
   offset="0"
   style="stop-color:#FFC444"
   id="stop1669" />
					<stop
   offset="0.9964"
   style="stop-color:#F36F56"
   id="stop1671" />
				</linearGradient>
				<path
   style="fill:url(#SVGID_00000097485541299093526790000000855943499838051508_);"
   d="M1125.585,1736.721      c0,0-4.987,39.672-19.737,68.501c-13.329,26.051-73.435,38.285-85.826,43.345c-12.39,5.061,20.42,25.386,54.508,31.596      c34.087,6.209,132.85,6.27,151.584-5.341c18.735-11.609-13.25-13.185-37.057-24.155s-34.145-60.076-28.071-81.502      C1167.06,1747.738,1125.585,1736.721,1125.585,1736.721z"
   id="path1674" />
				<g
   id="g1697">
					
						<linearGradient
   id="SVGID_00000074442595017758832510000004103408405373582242_"
   gradientUnits="userSpaceOnUse"
   x1="-2917.6211"
   y1="957.8887"
   x2="-2985.8391"
   y2="784.6276"
   gradientTransform="matrix(-0.995 0.0996 0.0996 0.995 -1895.803 1193.7489)">
						<stop
   offset="0"
   style="stop-color:#444B8C"
   id="stop1676" />
						<stop
   offset="0.9964"
   style="stop-color:#3E4177"
   id="stop1678" />
					</linearGradient>
					<path
   style="fill:url(#SVGID_00000074442595017758832510000004103408405373582242_);"
   d="M1189.003,1721.997       c8.088-13.679,2.93-38.475-12.912-49.144c-11.755-7.917-25.231-5.247-35.05-3.302c-4.545,0.901-36.465,7.624-43.776,31.297       c-2.323,7.525-1.362,17.474,2.039,25.174c1.753,3.965,5.017,8.841,12.195,18.1c6.37,8.214,5.955,7.946,7.902,10.33       c4.672,5.725,13.612,15.305,29.638,26.115c0.629-4.393,1.702-9.854,3.666-15.855c0.756-2.308,3.815-11.339,9.009-19.084       C1172.263,1729.907,1182.68,1732.693,1189.003,1721.997z"
   id="path1681" />
					
						<linearGradient
   id="SVGID_00000050656502022648205650000004103043353488607395_"
   gradientUnits="userSpaceOnUse"
   x1="-970.0371"
   y1="2489.7856"
   x2="-873.4965"
   y2="2302.0676"
   gradientTransform="matrix(-0.827 0.5622 0.5622 0.827 -938.6846 289.0357)">
						<stop
   offset="0"
   style="stop-color:#FFC444"
   id="stop1683" />
						<stop
   offset="0.9964"
   style="stop-color:#F36F56"
   id="stop1685" />
					</linearGradient>
					<path
   style="fill:url(#SVGID_00000050656502022648205650000004103043353488607395_);"
   d="M1128.73,1770.182       c0,0,17.233,22.979,46.675,18.199c26.361-4.281,24.52-64.143,6.36-75.136c-6.058-3.668-17.547-4.326-26.504-0.86       c-5.293,2.046-6.915,4.484-15.624,7.662c-8.032,2.929-10.449,2.239-12.734,4.573c-2.86,2.917-4.519,9.555,2.349,26.448       c-5.553-4.641-11.818-6.021-15.926-3.574c-0.654,0.39-2.358,1.805-3.201,3.781       C1107.071,1758.427,1114.11,1766.506,1128.73,1770.182z"
   id="path1688" />
					
						<linearGradient
   id="SVGID_00000150813435246785125190000012508980982604287648_"
   gradientUnits="userSpaceOnUse"
   x1="3620.3579"
   y1="2498.6658"
   x2="3567.7253"
   y2="2364.989"
   gradientTransform="matrix(0.827 -0.5622 0.5622 0.827 -3149.7031 1791.1674)">
						<stop
   offset="0"
   style="stop-color:#444B8C"
   id="stop1690" />
						<stop
   offset="0.9964"
   style="stop-color:#3E4177"
   id="stop1692" />
					</linearGradient>
					<path
   style="fill:url(#SVGID_00000150813435246785125190000012508980982604287648_);"
   d="M1122.747,1736.34       c0,0,11.236,20.816,17.488,25.727c6.254,4.912,20.344,7.908,34.021,0.445c13.679-7.464,21.269-14.456,21.269-14.456       s5.599,28.845,2.192,32.408c-3.406,3.567-28.626,19.008-35.873,17.914c-7.248-1.094-24.945-15.375-29.041-24.215       c-4.096-8.839-9.028-31.79-9.028-31.79L1122.747,1736.34z"
   id="path1695" />
				</g>
			</g>
		</g>
	</g>
</g>
</svg>
