<?xml version="1.0" encoding="UTF-8" standalone="no"?>
<!-- Generator: Adobe Illustrator 27.5.0, SVG Export Plug-In . SVG Version: 6.00 Build 0)  -->

<svg
   version="1.1"
   x="0px"
   y="0px"
   viewBox="0 0 750 500"
   style="enable-background:new 0 0 750 500;"
   xml:space="preserve"
   id="svg590"
   sodipodi:docname="background.svg"
   inkscape:version="1.2.2 (732a01da63, 2022-12-09)"
   xmlns:inkscape="http://www.inkscape.org/namespaces/inkscape"
   xmlns:sodipodi="http://sodipodi.sourceforge.net/DTD/sodipodi-0.dtd"
   xmlns="http://www.w3.org/2000/svg"
   xmlns:svg="http://www.w3.org/2000/svg"><defs
   id="defs594" /><sodipodi:namedview
   id="namedview592"
   pagecolor="#505050"
   bordercolor="#eeeeee"
   borderopacity="1"
   inkscape:showpageshadow="0"
   inkscape:pageopacity="0"
   inkscape:pagecheckerboard="0"
   inkscape:deskcolor="#505050"
   showgrid="false"
   inkscape:zoom="1.172383"
   inkscape:cx="434.58494"
   inkscape:cy="267.83056"
   inkscape:window-width="1920"
   inkscape:window-height="1009"
   inkscape:window-x="-8"
   inkscape:window-y="-8"
   inkscape:window-maximized="1"
   inkscape:current-layer="svg590" />


<rect
   x="-1.0669861"
   y="-0.71150208"
   style="display:inline;fill:#ffffff"
   width="752.13397"
   height="501.423"
   id="rect11"
   inkscape:label="white background"
   clip-path="url(#SVGID_00000030467860991723716470000010493793609434949801_)" /><g
   id="g39"
   inkscape:label="background"
   style="display:inline;opacity:0.5"
   clip-path="url(#SVGID_00000030467860991723716470000010493793609434949801_)"
   transform="translate(1.894,0.089)">
				<path
   style="fill:#85b857;fill-opacity:0.5"
   d="m -2.96,-0.801 h 94.358 c 8.501,2.31 17.098,4.279 25.666,6.351 11.884,2.848 23.6,6.358 35.22,10.139 12.963,4.239 25.827,8.882 38.185,14.675 10.928,5.104 21.421,11.212 30.981,18.586 5.258,4.021 10.246,8.461 14.464,13.582 3.072,3.827 5.82,8.023 7.351,12.719 1.825,5.576 1.805,11.824 -0.488,17.262 -1.872,4.733 -5.439,8.598 -9.444,11.646 -5.285,3.945 -11.309,6.756 -17.396,9.22 -13.227,5.302 -27.097,8.708 -40.655,13.01 -3.657,1.193 -7.354,2.323 -10.824,3.998 -1.467,0.752 -3.102,1.571 -3.767,3.186 1.604,1.788 3.988,2.46 6.191,3.189 5.99,1.809 12.124,3.065 18.185,4.6 11.085,2.771 22.136,5.85 32.689,10.272 -0.17,0.311 -0.338,0.622 -0.505,0.933 -2.2,4.419 0.669,10.346 5.389,11.58 1.738,0.281 3.667,0.274 5.195,-0.719 1.852,-1.056 3.005,-3.022 3.503,-5.048 4.202,2.454 8.253,5.252 11.697,8.708 2.47,2.521 4.596,5.666 4.877,9.28 0.15,3.276 -1.932,6.204 -4.513,8.026 -4.082,2.935 -8.965,4.469 -13.769,5.756 -9.066,2.29 -18.395,3.219 -27.689,4.008 -15.3,1.167 -30.61,2.199 -45.917,3.266 -16.764,1.046 -33.478,2.701 -50.199,4.286 -17.225,1.701 -34.448,3.476 -51.683,5.081 10.704,0.448 21.411,0.889 32.128,0.909 6.478,0.063 12.943,-0.288 19.415,-0.431 8.919,-0.301 17.837,-0.552 26.759,-0.782 9.233,-0.311 18.476,-0.137 27.705,-0.408 7.819,-0.047 15.628,-0.461 23.433,-0.832 16.072,-0.973 32.071,-2.905 48.137,-3.981 8.013,-0.592 16.035,-1.07 24.021,-1.949 6.194,-0.655 12.422,-1.695 18.232,-4.018 3.229,-1.337 6.405,-3.045 8.838,-5.603 1.478,-1.571 2.674,-3.711 2.186,-5.934 -0.939,-5.078 -3.955,-9.46 -7.204,-13.351 -3.981,-4.596 -8.344,-8.895 -13.278,-12.465 -4.165,-3.002 -8.581,-5.649 -13.154,-7.976 -9.708,-4.827 -20.291,-7.448 -30.4,-11.249 -1.849,-0.739 -3.704,-1.541 -5.298,-2.748 -1.056,-0.812 -2.006,-1.989 -1.989,-3.386 -0.02,-1.404 0.739,-2.664 1.702,-3.63 1.645,-1.655 3.667,-2.865 5.666,-4.041 11.225,-6.549 23.336,-11.493 34.247,-18.596 4.64,-3.035 9.136,-6.358 12.99,-10.366 4.128,-4.376 7.421,-9.811 8.25,-15.852 0.669,-4.66 -0.194,-9.437 -1.935,-13.779 -2.44,-6.385 -6.518,-12.004 -11.198,-16.935 C 255.951,41.596 247.326,34.92 237.869,29.742 226.002,23.083 213.319,18.072 200.8,12.804 193.907,9.866 186.957,7.058 179.921,4.48 175.218,2.825 170.645,0.793 165.871,-0.651 l 0.311,-0.15 h 2.33 c 6.656,2.213 13.321,4.399 19.92,6.783 7.063,2.547 14,5.429 20.963,8.24 12.95,5.278 25.91,10.797 37.694,18.405 7.775,5.181 14.996,11.282 21.06,18.406 4.486,5.282 8.056,11.402 10.049,18.061 1.508,5.078 1.621,10.61 0.013,15.681 -1.842,5.933 -5.623,11.105 -10.156,15.287 -7.829,7.167 -17.132,12.455 -26.488,17.346 -6.753,3.49 -13.562,6.869 -20.181,10.603 -1.732,1.063 -3.637,2.086 -4.78,3.827 -0.495,0.789 0.227,1.571 0.856,1.996 2.019,1.431 4.392,2.236 6.706,3.072 6.565,2.256 13.208,4.282 19.733,6.666 5.238,1.925 10.289,4.352 15.076,7.221 5.405,3.219 10.573,6.896 15.069,11.315 4.018,3.934 7.892,8.103 10.781,12.957 1.611,2.774 2.855,5.83 3.219,9.036 0.301,2.915 -1.02,5.76 -3.012,7.826 -3.413,3.63 -8.049,5.827 -12.713,7.394 -6.425,2.169 -13.181,3.059 -19.906,3.694 -13.689,1.243 -27.414,2.103 -41.097,3.456 -7.475,0.662 -14.946,1.431 -22.434,1.949 -8.106,0.575 -16.233,0.832 -24.352,1.117 -6.244,0.097 -12.489,0.13 -18.73,0.167 -18.289,0.184 -36.56,0.986 -54.842,1.414 -4.787,0.214 -9.571,-0.06 -14.357,-0.104 -9.925,-0.127 -19.83,-0.712 -29.741,-1.103 -5.248,-0.18 -10.48,-0.785 -15.731,-0.745 -11.416,1.233 -22.808,2.798 -34.09,4.961 V -0.801 Z"
   id="path13" />
				<g
   id="g17"
   style="fill:#85b857;fill-opacity:0.5">
					<path
   style="fill:#85b857;fill-opacity:0.5"
   d="m 466.585,-0.801 h 2.765 c -9.818,8.24 -19.89,16.169 -29.912,24.159 -20.625,16.594 -41.518,32.87 -61.478,50.273 -10.339,9.119 -20.448,18.519 -29.958,28.508 -5.9,6.164 -11.673,12.462 -16.965,19.161 -4.944,6.351 -9.614,12.987 -13.117,20.257 -2.37,4.924 -4.128,10.266 -4.189,15.775 -0.043,4.356 1.29,8.792 4.118,12.151 2.962,3.71 7.374,6.007 11.961,7 7.521,1.668 15.3,1.551 22.948,1.05 9.336,-0.662 18.596,-2.19 27.705,-4.319 13.057,-2.898 25.9,-6.632 38.733,-10.383 15.494,-4.473 30.908,-9.219 46.258,-14.163 12.024,-3.801 24.065,-7.551 36.072,-11.412 -7.655,1.631 -15.176,3.834 -22.721,5.903 -14.304,3.948 -28.494,8.327 -42.942,11.733 -9.427,2.133 -18.984,4.125 -28.685,4.255 1.865,-0.298 3.564,-1.167 5.315,-1.839 3.67,-1.544 7.411,-3.072 10.65,-5.439 1.819,-1.377 3.513,-3.126 4.165,-5.372 0.371,-1.661 0.281,-3.533 -0.766,-4.944 -1.441,-2.136 -4.199,-2.958 -6.666,-2.694 -3.811,0.421 -7.294,2.136 -10.76,3.657 -5.726,2.671 -11.272,5.733 -16.584,9.146 -1.748,1.103 -3.557,2.143 -5.071,3.563 -3.376,-1.842 -6.077,-4.84 -7.591,-8.37 -1.805,-4.038 -1.909,-8.594 -1.407,-12.92 0.99,-6.973 3.791,-13.535 7.037,-19.736 5.93,-10.978 13.121,-21.224 20.756,-31.075 14.852,-19.051 32.091,-36.079 49.871,-52.375 12.024,-10.958 24.473,-21.454 37.229,-31.55 h 255.816 v 215.1 c -5.245,4.406 -10.654,8.615 -16.066,12.813 -15.471,11.967 -31.827,22.768 -48.725,32.609 -10.657,6.157 -21.391,12.208 -32.435,17.647 -13.258,6.502 -26.853,12.362 -40.863,17.048 -13.04,4.372 -26.358,8.186 -40.047,9.845 -5.596,0.615 -11.336,1.063 -16.878,-0.174 -3.192,-0.729 -6.355,-2.25 -8.347,-4.924 -1.825,-2.414 -2.263,-5.579 -1.942,-8.518 0.772,-5.275 3.279,-10.095 6.067,-14.568 6.301,-9.855 14.19,-18.573 22.377,-26.883 8.661,-8.822 17.794,-17.165 26.957,-25.462 9.524,-8.521 19.268,-16.794 28.782,-25.329 -4.396,1.685 -8.564,3.891 -12.887,5.736 -12.248,5.108 -24.707,9.744 -37.433,13.518 -8.467,2.557 -16.898,5.258 -25.499,7.337 -6.946,1.675 -13.953,3.085 -20.979,4.392 -9.156,1.695 -18.436,2.912 -27.762,2.965 -6.328,0.03 -12.79,0.033 -18.914,-1.765 -3.139,-0.929 -6.388,-2.744 -7.652,-5.937 -1.247,-3.072 -0.361,-6.488 1.003,-9.36 2.173,-4.473 5.385,-8.334 8.695,-12.004 8.033,-8.872 17.409,-16.406 27.16,-23.299 11.335,-8.03 23.009,-15.561 34.558,-23.276 5.81,-3.898 11.62,-7.799 17.586,-11.449 11.252,-6.93 22.875,-13.224 34.558,-19.385 -2.243,-3.42 -6.114,-5.312 -9.925,-6.435 -4.068,-1.113 -8.297,-1.655 -12.505,-1.755 -3.065,0.632 -5.997,1.805 -9.002,2.658 -4.476,1.407 -8.982,2.718 -13.452,4.142 -2.266,0.702 -4.319,1.919 -6.425,2.978 -3.38,1.762 -6.759,3.54 -9.962,5.609 -0.582,-0.475 -1.153,-1.13 -1.976,-1.023 -1.237,-0.124 -2.123,1.14 -3.356,0.956 -2.474,-0.214 -4.997,-0.341 -7.441,0.15 -19.485,5.563 -38.673,12.108 -58.041,18.058 -14.351,4.677 -28.782,9.119 -43.259,13.391 -13.93,4.015 -27.816,8.223 -41.966,11.416 -8.721,2.056 -17.553,3.707 -26.485,4.52 -8.581,0.806 -17.302,1.076 -25.82,-0.461 -2.073,-0.505 -4.162,-0.969 -6.141,-1.778 -4.901,-1.879 -9.116,-5.532 -11.593,-10.169 -1.875,-3.507 -2.661,-7.538 -2.467,-11.496 0.234,-6.425 2.544,-12.572 5.442,-18.242 7.481,-14.314 18.402,-26.412 29.467,-38.028 C 364.603,80.491 385.74,62.79 407.298,45.745 427.01,30.167 446.876,14.78 466.585,-0.801 Z m -40.287,121.08 c -0.381,0.181 -0.769,0.344 -1.147,0.508 l -0.06,0.164 c -0.117,0.097 -0.348,0.287 -0.465,0.381 l -0.231,0.023 -0.02,0.234 c -0.097,0.117 -0.288,0.348 -0.384,0.465 l -0.164,0.053 c -0.17,0.384 -0.344,0.762 -0.515,1.14 -0.361,1.05 -0.341,2.23 -0.02,3.293 0.171,0.358 0.348,0.712 0.511,1.083 0.618,0.876 1.508,1.481 2.46,1.942 1.334,0.341 2.781,0.307 4.058,-0.234 0.518,-0.378 1.033,-0.762 1.514,-1.187 0.234,-0.328 0.471,-0.652 0.722,-0.966 0.498,-1.357 0.518,-2.935 -0.02,-4.282 -0.301,-0.351 -0.588,-0.705 -0.883,-1.056 -0.842,-0.652 -1.762,-1.197 -2.744,-1.604 -0.857,-0.211 -1.773,-0.244 -2.612,0.043 z m 16.273,5.81 c -0.455,0.167 -0.886,0.364 -1.3,0.592 -0.087,0.007 -0.261,0.013 -0.348,0.017 -0.401,0.351 -0.789,0.715 -1.157,1.093 l 0.033,0.301 -0.391,0.02 c 0.013,0.11 0.043,0.331 0.06,0.441 -0.648,1.033 -0.605,2.637 -0.027,3.704 0,0.087 0.007,0.264 0.01,0.354 0.455,0.558 0.916,1.147 1.551,1.528 0.414,0.174 0.826,0.381 1.247,0.572 1.638,0.288 3.296,-0.221 4.509,-1.354 1.441,-1.581 1.685,-4.205 0.294,-5.89 -0.752,-0.675 -1.681,-1.073 -2.637,-1.357 -0.621,-0.011 -1.233,-0.011 -1.844,-0.021 z m 111.727,30.142 c -10.968,7.441 -22.066,14.692 -32.92,22.3 -10.791,7.541 -21.464,15.414 -30.63,24.921 -3.393,3.56 -6.719,7.254 -9.209,11.519 -1.177,2.093 -2.28,4.396 -2.089,6.863 0,2.089 1.575,3.781 3.336,4.693 3.162,1.675 6.786,2.079 10.289,2.47 11.463,0.799 22.992,-0.12 34.297,-2.089 7.468,-1.294 14.899,-2.785 22.273,-4.53 7.712,-1.832 15.297,-4.138 22.865,-6.478 7.087,-2.153 14.184,-4.289 21.15,-6.813 6.512,-2.33 12.957,-4.847 19.345,-7.501 5.753,-2.417 11.793,-4.018 17.72,-5.934 1.07,-0.471 1.728,-1.528 2.698,-2.169 -12.649,3.888 -25.211,8.096 -38.038,11.392 -7.257,1.862 -14.631,3.253 -22.046,4.329 -7.959,1.103 -16.239,1.377 -24.011,-0.953 -3.142,-0.926 -6.328,-2.671 -7.789,-5.743 -0.899,-1.705 -0.896,-3.674 -0.685,-5.539 0.495,-1.628 1.056,-3.253 2.022,-4.67 2.684,-0.525 5.232,-1.554 7.782,-2.514 0.638,-0.267 1.284,-0.525 1.929,-0.796 0.779,-0.324 1.558,-0.665 2.34,-0.999 1.003,-0.431 1.999,-0.889 2.998,-1.344 3.082,-1.407 6.111,-2.932 9.096,-4.536 3.473,-1.922 6.88,-3.971 10.079,-6.328 3.871,-2.935 7.759,-6.502 9.022,-11.379 0.652,-3.162 -0.792,-6.656 -3.737,-8.113 5.79,-5.339 12.021,-10.5 16.012,-17.416 1.738,-3.119 3.233,-6.592 2.955,-10.242 -16.04,8.575 -31.982,17.397 -47.054,27.599 z m 52.408,101.632 c -1.782,0.532 -3.47,1.331 -5.031,2.33 -1.484,1.046 -2.828,2.266 -4.082,3.57 -1.367,1.444 -3.159,2.454 -4.296,4.118 -0.745,1.905 -2.614,3.089 -3.266,5.044 -0.361,1.197 -0.361,2.544 0.08,3.724 0.177,0.331 0.384,0.669 0.572,1.013 0.712,0.809 1.628,1.374 2.624,1.778 2.698,0.495 5.325,-0.491 7.775,-1.511 1.04,-0.468 2.059,-0.99 3.065,-1.541 1.865,-1.11 3.674,-2.323 5.342,-3.714 2.36,-1.895 4.6,-4.125 5.713,-7 0.445,-2.016 0.234,-4.306 -1.331,-5.8 -1.227,-1.113 -2.898,-1.371 -4.352,-2.042 -0.941,-0.096 -1.883,-0.086 -2.813,0.031 z m -30.74,9.68 c -0.167,0.087 -0.501,0.264 -0.665,0.351 -0.164,0.084 -0.485,0.254 -0.645,0.338 -2.551,1.581 -4.911,3.951 -5.449,7.013 -0.411,2.3 0.769,4.65 2.751,5.837 2.25,0.966 4.917,0.668 7.033,-0.522 2.567,-1.394 4.937,-3.333 6.442,-5.877 0.431,-0.966 0.615,-2.022 0.709,-3.069 -0.15,-0.468 -0.254,-0.939 -0.328,-1.414 -0.301,-0.575 -0.642,-1.123 -1.009,-1.645 -0.09,-0.09 -0.267,-0.264 -0.354,-0.354 -2.398,-1.851 -5.798,-1.834 -8.485,-0.658 z"
   id="path15" />
				</g>
				<path
   style="fill:#85b857;fill-opacity:0.5"
   d="m 479.953,-0.801 h 1.715 c -8.645,5.9 -17.098,12.141 -24.743,19.305 -1.003,0.979 -1.939,2.036 -3.045,2.905 0.064,-0.418 0.244,-0.772 0.542,-1.07 3.266,-3.426 6.829,-6.545 10.423,-9.621 4.909,-3.998 9.88,-7.939 15.108,-11.519 z"
   id="path19" />
				<path
   style="fill:#85b857;fill-opacity:0.5"
   d="m 367.474,107.339 c 2.798,-0.729 5.853,-1.394 8.658,-0.321 1.448,0.515 2.704,1.658 3.116,3.169 0.284,1 0.077,2.039 -0.08,3.045 -1.046,2.818 -2.978,5.185 -5.104,7.264 -4.891,4.747 -10.379,8.932 -16.514,11.941 -3.881,1.879 -7.886,3.634 -12.151,4.416 -1.882,0.261 -3.934,0.485 -5.696,-0.398 -1.177,-0.568 -1.828,-1.935 -1.655,-3.212 0.264,-2.296 1.631,-4.269 3.032,-6.03 3.293,-3.935 7.317,-7.18 11.496,-10.122 1.03,-0.759 2.23,-1.314 3.069,-2.31 1.668,-1.932 3.804,-3.366 5.857,-4.854 1.78,-1.281 3.85,-2.08 5.972,-2.588 z"
   id="path21" />
				<g
   id="g25"
   style="fill:#85b857;fill-opacity:0.5">
					<path
   style="fill:#85b857;fill-opacity:0.5"
   d="m 264.305,223.161 c 4.305,-0.786 8.852,-1.307 13.12,-0.02 3.39,0.986 6.275,3.44 7.909,6.559 1.972,3.593 2.283,7.882 1.598,11.867 -1.1,6.696 -4.118,12.883 -7.378,18.767 -3.65,6.472 -7.438,12.883 -11.757,18.937 -3.386,4.693 -7.013,9.209 -10.684,13.689 -8.123,9.741 -16.193,19.529 -24.677,28.962 -4.085,4.71 -8.197,9.45 -11.519,14.745 -0.896,1.661 -2.133,3.466 -1.732,5.449 0.588,1.3 2.236,1.501 3.5,1.467 3.246,-0.264 6.308,-1.474 9.363,-2.514 5.054,-1.675 9.945,-3.878 14.431,-6.759 6.204,-3.781 12.084,-8.073 18.282,-11.857 0.171,2.056 1.474,3.911 3.289,4.864 2.26,1.28 4.971,1.197 7.471,0.913 3.754,-0.635 7.354,-2.033 10.677,-3.878 4.496,-2.514 8.745,-5.589 12.185,-9.45 1.996,-2.367 3.657,-5.335 3.406,-8.531 -0.043,-2.076 -1.18,-3.981 -2.734,-5.295 11.041,-5.746 22.674,-10.603 34.929,-13.02 2.143,-0.545 4.489,-0.154 6.505,-1.177 7.04,-3.112 14.194,-5.96 21.397,-8.668 13.545,-5.094 27.338,-9.838 41.695,-12.024 6.759,-0.959 13.645,-1.785 20.468,-0.956 3.196,0.448 6.472,1.243 9.126,3.176 2.153,1.541 3.777,3.924 4.112,6.582 0.471,3.209 -0.715,6.391 -2.26,9.149 -2.985,5.165 -7.164,9.497 -11.439,13.605 -8.481,8.21 -17.961,15.273 -27.157,22.648 -10.58,8.437 -20.936,17.152 -31.229,25.937 -8.678,7.411 -17.356,15.059 -23.958,24.453 -3.149,4.637 -5.83,10.085 -5.278,15.845 0.364,4.383 3.149,8.24 6.759,10.607 4.59,3.119 10.299,3.714 15.701,3.955 9.323,0.144 18.583,-1.407 27.655,-3.436 14.601,-3.38 28.992,-7.612 43.223,-12.298 12.298,-3.975 24.439,-8.407 36.54,-12.943 13.796,-5.188 27.729,-10.005 41.461,-15.357 12.98,-5.048 25.991,-10.018 39.098,-14.728 26.478,-9.734 53.244,-18.904 80.789,-25.158 13.739,-3.159 27.699,-5.372 41.742,-6.625 7.675,-0.632 15.464,-1.19 23.102,0.137 4.426,0.806 8.992,2.176 12.345,5.325 2.106,1.949 3.48,4.774 3.296,7.682 -0.054,3.089 -1.565,5.927 -3.416,8.31 -3.055,3.921 -6.953,7.08 -10.958,9.982 -11.081,7.869 -23.162,14.17 -35.253,20.321 -10.888,5.536 -21.936,10.754 -32.96,16.015 -6.121,2.885 -12.134,5.99 -18.275,8.828 -11.656,5.405 -23.283,10.884 -34.986,16.189 -13.612,6.201 -27.164,12.529 -40.669,18.96 -5.887,2.741 -11.753,5.532 -17.496,8.571 -12.462,6.402 -25.098,12.472 -37.46,19.074 -11.857,6.288 -23.667,12.679 -35.207,19.535 -10.52,6.274 -21.213,12.278 -31.436,19.034 -5.803,3.814 -11.349,8.003 -17.008,12.017 h -6.445 c 5.626,-3.784 10.981,-7.956 16.544,-11.834 10.961,-7.822 22.718,-14.414 34.334,-21.19 11.359,-6.692 22.905,-13.07 34.551,-19.251 12.382,-6.692 25.051,-12.83 37.573,-19.245 5.399,-2.758 10.774,-5.566 16.283,-8.096 14.036,-6.612 28.076,-13.211 42.207,-19.616 12.255,-5.539 24.439,-11.235 36.644,-16.885 5.088,-2.327 10.082,-4.844 15.116,-7.284 19.205,-9.213 38.61,-18.078 57.166,-28.564 4.891,-2.795 9.684,-5.756 14.311,-8.969 3.945,-2.781 7.795,-5.803 10.847,-9.577 1.371,-1.735 2.581,-3.734 2.811,-5.977 0.217,-2.009 -0.598,-4.035 -1.999,-5.456 -2.223,-2.286 -5.285,-3.513 -8.317,-4.299 -5.292,-1.324 -10.801,-1.501 -16.229,-1.334 -27.648,1.371 -54.852,7.438 -81.244,15.578 -13.375,4.061 -26.609,8.574 -39.736,13.375 -14.882,5.452 -29.748,10.941 -44.523,16.667 -12.419,4.834 -24.964,9.333 -37.49,13.873 -13.288,4.901 -26.542,9.908 -40.007,14.317 -15.176,5.064 -30.527,9.647 -46.094,13.361 -7.602,1.782 -15.3,3.246 -23.095,3.794 -6.595,0.391 -13.385,0.338 -19.709,-1.788 -5.79,-1.979 -10.958,-6.562 -12.576,-12.599 -1.434,-5.272 -0.077,-10.874 2.297,-15.658 2.678,-5.442 6.569,-10.162 10.597,-14.652 4.894,-5.295 10.286,-10.092 15.771,-14.759 9.901,-8.394 19.813,-16.778 29.922,-24.924 9.089,-7.398 18.663,-14.214 27.351,-22.099 4.563,-4.245 9.156,-8.588 12.546,-13.863 1.324,-2.133 2.564,-4.459 2.688,-7.02 0.164,-2.133 -0.792,-4.262 -2.39,-5.656 -2.079,-1.835 -4.824,-2.654 -7.501,-3.119 -4.687,-0.789 -9.474,-0.531 -14.18,-0.084 -13.779,1.284 -27.117,5.318 -40.097,9.948 -7.602,2.721 -15.14,5.616 -22.591,8.718 -1.18,0.488 -2.337,1.023 -3.557,1.394 2.958,0.368 5.903,1.454 8.16,3.45 2.38,2.116 3.787,5.262 3.854,8.441 0.124,3.326 -0.782,6.579 -1.899,9.677 -2.063,5.703 -5.191,10.934 -8.401,16.049 -6.238,9.664 -13.314,18.746 -20.227,27.929 -15.21,20.067 -30.657,39.953 -46.181,59.78 -7.605,9.831 -15.307,19.602 -22.27,29.905 -7.662,11.396 -14.551,23.329 -20.291,35.808 -3.129,6.99 -6.244,14.117 -7.458,21.732 H -2.96 v -27.812 l 0.003,0.448 c 7.097,-12.165 15.146,-23.741 23.467,-35.093 7.565,-10.162 15.564,-20 23.778,-29.647 8.501,-10.095 17.406,-19.84 26.345,-29.541 21.297,-22.938 43.58,-44.968 66.893,-65.857 14.361,-12.84 29.367,-24.974 45.115,-36.076 8.243,-5.72 16.704,-11.195 25.726,-15.614 8.374,-3.951 17.353,-7.043 26.662,-7.528 3.306,0.074 6.676,0.431 9.751,1.728 2.922,1.237 5.385,3.814 6,6.99 0.592,3.286 -0.267,6.615 -1.394,9.691 -1.558,4.245 -4.005,8.086 -6.649,11.727 -1.755,-2.012 -4.64,-2.052 -7.083,-1.742 -2.484,0.381 -4.971,0.866 -7.314,1.798 -4.897,1.929 -9.547,4.627 -13.361,8.284 -3.236,3.086 -5.773,7.03 -6.699,11.443 -0.471,2.654 -0.351,5.649 1.404,7.842 1.792,2.38 4.988,3.085 7.819,2.821 -5.008,6.365 -9.447,13.197 -13.057,20.451 -1.631,3.624 -3.353,7.695 -2.33,11.727 0.424,1.966 2.397,3.042 4.249,3.306 3.242,0.451 6.535,-0.114 9.674,-0.939 2.731,-0.669 5.282,-1.879 7.959,-2.704 -2.25,0.157 -4.82,0.074 -6.515,-1.628 -1.441,-1.317 -1.564,-3.493 -1.04,-5.262 0.849,-3.089 2.671,-5.776 4.496,-8.36 4.817,-6.679 10.503,-12.653 15.922,-18.833 4.346,-5.034 8.558,-10.182 12.79,-15.317 4.647,-5.626 9.357,-11.208 13.769,-17.028 3.707,-4.874 6.983,-10.059 10.085,-15.33 3.463,-5.91 6.97,-11.867 9.223,-18.365 1.18,-3.513 2.053,-7.274 1.481,-10.991 -0.538,-3.694 -2.755,-7.241 -6.168,-8.892 -3.172,-1.571 -6.849,-1.451 -10.276,-1.02 -4.967,0.692 -9.808,2.066 -14.591,3.547 -15.043,4.887 -29.236,11.994 -43.122,19.489 -10.159,5.499 -20.01,11.536 -29.821,17.623 -7.127,4.419 -14.177,8.969 -21.143,13.642 -17.764,11.914 -35.323,24.132 -52.927,36.28 -15.27,10.654 -30.527,21.327 -45.65,32.191 -12.803,9.146 -25.589,18.322 -38.248,27.665 -0.592,0.478 -1.481,0.618 -1.832,1.364 0.993,-0.475 1.936,-1.04 2.882,-1.598 0.612,-0.348 1.213,-0.719 1.865,-0.983 -0.505,0.826 -1.431,1.183 -2.223,1.661 -0.565,0.314 -1.12,0.652 -1.671,0.993 -7.421,4.656 -14.327,10.062 -21.247,15.42 -0.465,0.338 -0.919,0.846 -1.561,0.729 -1.046,-0.826 0.237,-1.829 0.889,-2.397 8.528,-7.1 17.46,-13.689 26.308,-20.374 15.237,-11.352 30.69,-22.407 46.151,-33.445 16.062,-11.379 32.098,-22.795 48.294,-33.98 18.345,-12.699 36.534,-25.649 55.434,-37.523 8.588,-5.382 17.222,-10.7 26.014,-15.745 9.123,-5.151 18.409,-10.022 27.879,-14.498 11.186,-5.158 22.739,-9.765 34.86,-12.198 z m -75.461,77.777 c -1.086,0.538 -2.333,0.99 -3.019,2.059 -1.023,1.367 -1.006,3.269 -0.348,4.794 0.458,0.679 1.046,1.254 1.685,1.768 1.304,0.665 2.801,0.531 4.205,0.348 0.562,-0.344 1.11,-0.712 1.635,-1.113 0.338,-0.445 0.672,-0.889 1.006,-1.334 0.578,-1.404 0.699,-3.052 0.057,-4.453 -0.257,-0.341 -0.508,-0.685 -0.749,-1.026 -1.156,-1.223 -2.908,-1.36 -4.472,-1.043 z m 124.69,1.371 c -0.812,0.465 -1.718,0.692 -2.654,0.695 -0.572,0.187 -1.143,0.378 -1.705,0.582 -2.992,1.648 -4.52,5.185 -3.998,8.518 0.207,0.562 0.421,1.13 0.632,1.698 0.481,0.669 1.076,1.247 1.745,1.738 2.042,0.909 4.469,0.655 6.422,-0.378 1.808,-0.939 3.069,-2.587 4.7,-3.767 1.224,-0.906 2.3,-2.103 2.755,-3.58 0.234,-1.257 0.217,-2.621 -0.398,-3.767 -0.07,-0.117 -0.217,-0.344 -0.288,-0.458 -0.384,-0.408 -0.782,-0.792 -1.2,-1.147 -1.815,-1.034 -4.115,-0.86 -6.011,-0.134 z"
   id="path23" />
				</g>
				<path
   style="fill:#85b857;fill-opacity:0.5"
   d="m 533.171,239.527 c 3.36,-1.842 7.321,-2.29 11.101,-2.206 3.453,-0.047 6.93,0.712 10.039,2.226 2.176,1.036 3.734,3.279 3.854,5.7 0.067,1.053 -0.217,2.079 -0.468,3.092 -1.331,3.299 -3.714,6.007 -6.184,8.501 -4.055,4.042 -8.571,7.588 -13.221,10.914 -5.974,4.252 -12.174,8.177 -18.492,11.894 -5.258,3.119 -10.811,5.76 -16.621,7.678 -3.861,1.22 -7.983,2.069 -12.031,1.381 -2.216,-0.445 -4.483,-1.354 -5.917,-3.179 -1.157,-1.414 -1.511,-3.376 -1.083,-5.135 0.629,-2.801 2.2,-5.268 3.858,-7.568 4.021,-5.315 9.123,-9.698 14.431,-13.682 9.056,-6.699 18.616,-12.756 28.765,-17.66 0.963,-0.314 1.053,-1.561 1.969,-1.956 z"
   id="path27" />
				<path
   style="fill:#85b857;fill-opacity:0.5"
   d="m 493.117,238.585 c 1.534,-0.311 3.216,-0.174 4.59,0.632 1.381,0.826 2.129,2.444 2.149,4.021 -0.12,1.899 -1.093,3.65 -2.36,5.028 -1.982,2.166 -4.62,3.594 -7.304,4.7 -1.849,0.705 -3.827,1.391 -5.833,1.09 -1.404,-0.211 -2.751,-1.297 -2.741,-2.815 0.08,-1.264 -0.181,-2.544 0.094,-3.787 0.618,-2.273 2.26,-4.095 4.048,-5.549 2.163,-1.639 4.74,-2.658 7.357,-3.32 z"
   id="path29" />
				<path
   style="fill:#85b857;fill-opacity:0.5"
   d="m 389.213,337.927 c 0.381,-0.191 0.709,-0.14 0.986,0.147 0.632,0.766 1.738,0.849 2.36,1.631 1.197,1.354 0.806,3.426 -0.053,4.86 -2.026,3.497 -4.747,6.575 -7.862,9.143 -3.437,2.875 -7.869,5.753 -12.552,4.483 -1.608,-0.415 -2.872,-1.979 -2.764,-3.66 0.107,-1.782 0.859,-3.473 1.939,-4.877 2.116,-2.798 4.911,-4.994 7.812,-6.926 3.127,-2.057 6.47,-3.922 10.134,-4.801 z"
   id="path31" />
				<path
   style="fill:#85b857;fill-opacity:0.5"
   d="m 363.607,362.794 c 0.923,-0.572 2.076,-0.424 3.115,-0.475 1.708,-0.023 3.263,1.538 3.176,3.256 0.013,1.625 -1.307,2.878 -2.661,3.557 -1.421,0.598 -2.333,2.036 -3.878,2.397 -1.691,0.668 -3.714,-0.812 -3.563,-2.628 -0.074,-2.614 2.072,-4.469 3.811,-6.107 z"
   id="path33" />
				<path
   style="fill:#85b857;fill-opacity:0.5"
   d="m 494.846,482.433 c 9.022,-1.571 18.192,-2.4 27.354,-2.273 6.057,0.361 12.459,1.27 17.51,4.904 2.878,2.089 4.86,5.175 6.345,8.36 1.08,2.24 1.254,4.754 1.441,7.197 H 445.359 c 3.848,-2.851 8.247,-4.81 12.609,-6.722 11.84,-5.094 24.128,-9.347 36.878,-11.466 z"
   id="path35" />
				<path
   style="fill:#85b857;fill-opacity:0.5"
   d="m 310.342,485.01 c 0.515,-0.495 0.966,-1.157 1.745,-1.21 -1.792,2.196 -3.945,4.071 -6.351,5.566 -6.124,3.991 -12.485,7.605 -18.817,11.255 h -3.968 c 6.632,-3.319 13.238,-6.692 19.716,-10.299 2.668,-1.594 5.536,-3.005 7.675,-5.312 z"
   id="path37" />
			</g></svg>
